<svg height="170" viewBox="0 0 370 170" width="370" xmlns="http://www.w3.org/2000/svg"><g fill="none" fill-rule="evenodd" transform="translate(0 5)"><path d="m13.8 127.6c1.7 0 3.3083333-.233333 4.825-.7s2.775-1.1 3.775-1.9l-1.5-2.9c-.5666667.533333-1.4166667 1-2.55 1.4s-2.2666667.6-3.4.6c-1.4666667 0-2.7083333-.208333-3.725-.625s-1.84166667-1.016667-2.475-1.8-1.1-1.741667-1.4-2.875-.45-2.433333-.45-3.9h16.05c.2-1.333333.3-2.55.3-3.65 0-2.1-.2833333-3.791667-.85-5.075s-1.3-2.275-2.2-2.975-1.9166667-1.175-3.05-1.425-2.2666667-.375-3.4-.375c-3.5333333 0-6.25 1.116667-8.15 3.35s-2.85 5.483333-2.85 9.75c0 2 .21666667 3.8.65 5.4s1.1 2.975 2 4.125 2.05 2.033333 3.45 2.65 3.05.925 4.95.925zm5.55-15.85h-12.4c.23333333-2.5.94166667-4.266667 2.125-5.3 1.1833333-1.033333 2.7583333-1.55 4.725-1.55 1.7666667 0 3.1333333.508333 4.1 1.525s1.45 2.791667 1.45 5.325z" fill="#1e8a1d" fill-rule="nonzero"/><path d="m33.5 16.5h41v79h-41z" stroke="#e0e0e0"/><path d="m82.5 16.5h41v79h-41z" stroke="#e0e0e0"/><path d="m131.5 16.5h41v79h-41z" stroke="#e0e0e0"/><path d="m180.5 16.5h41v79h-41z" stroke="#e0e0e0"/><path d="m229.5 16.5h41v79h-41z" stroke="#e0e0e0"/><path d="m279 17h40v78h-40z" stroke="#1e8a1d" stroke-width="2"/><path d="m327.5 16.5h41v79h-41z" stroke="#e0e0e0"/><g fill-rule="nonzero"><path d="m51.432 76.576c2.448 0 4.788-.324 7.02-.972s4.188-1.632 5.868-2.952 3.024-3.024 4.032-5.112 1.512-4.572 1.512-7.452-.492-5.268-1.476-7.164-2.316-3.396-3.996-4.5-3.624-1.884-5.832-2.34-4.536-.684-6.984-.684c-1.104 0-2.256.072-3.456.216s-2.208.288-3.024.432v-15.12h21.384v-5.328h-27.36v49.896c.912.24 1.908.42 2.988.54s2.184.228 3.312.324 2.208.156 3.24.18 1.956.036 2.772.036zm.72-5.184h-1.944c-.672 0-1.332-.024-1.98-.072s-1.248-.096-1.8-.144-.996-.12-1.332-.216v-19.8c.24-.048.6-.108 1.08-.18s1.008-.132 1.584-.18l1.728-.144c.576-.048 1.08-.072 1.512-.072 1.632 0 3.204.132 4.716.396s2.844.78 3.996 1.548 2.076 1.836 2.772 3.204 1.044 3.156 1.044 5.364c0 1.728-.3 3.24-.9 4.536s-1.416 2.364-2.448 3.204-2.244 1.476-3.636 1.908-2.856.648-4.392.648zm42.568 5.04c5.424 0 9.348-.984 11.772-2.952s3.636-5.136 3.636-9.504c0-1.488-.204-2.892-.612-4.212s-1.116-2.46-2.124-3.42-2.34-1.716-3.996-2.268-3.708-.828-6.156-.828c-.96 0-1.968.036-3.024.108s-2.16.204-3.312.396v-13.752h-5.76v36c3.312.288 6.504.432 9.576.432zm26.856-.432v-36h-5.76v36zm-25.56-4.608c-1.632 0-3.336-.144-5.112-.432v-12.456c.816-.24 1.704-.384 2.664-.432s1.848-.072 2.664-.072c2.928 0 4.98.624 6.156 1.872s1.764 2.832 1.764 4.752c0 2.16-.6 3.828-1.8 5.004s-3.312 1.764-6.336 1.764zm57.896 5.472c2.16 0 4.224-.276 6.192-.828s3.672-1.356 5.112-2.412l-1.872-4.392c-.864.672-1.98 1.272-3.348 1.8s-2.916.792-4.644.792c-2.016 0-3.708-.384-5.076-1.152s-2.472-1.788-3.312-3.06-1.44-2.736-1.8-4.392-.54-3.396-.54-5.22c0-9.216 3.408-13.824 10.224-13.824 1.536 0 2.976.18 4.32.54s2.568.852 3.672 1.476l1.656-4.968c-1.296-.672-2.748-1.188-4.356-1.548s-3.564-.54-5.868-.54c-5.04 0-8.904 1.62-11.592 4.86s-4.032 7.908-4.032 14.004c0 2.832.276 5.412.828 7.74s1.44 4.32 2.664 5.976 2.796 2.928 4.716 3.816 4.272 1.332 7.056 1.332zm50.736-.864v-30.96h11.232v-5.04h-28.224v5.04h11.232v30.96zm37.68 14.4v-14.976c1.2.528 2.316.9 3.348 1.116s2.436.324 4.212.324c2.496 0 4.764-.456 6.804-1.368s3.78-2.208 5.22-3.888 2.556-3.732 3.348-6.156 1.188-5.148 1.188-8.172c0-6.432-1.176-11.064-3.528-13.896s-5.928-4.248-10.728-4.248c-2.256 0-4.26.444-6.012 1.332s-3.18 2.172-4.284 3.852h-.288l-1.08-4.32h-3.96v50.4zm7.344-18.576c-1.824 0-3.288-.18-4.392-.54s-2.088-.876-2.952-1.548v-17.856c.576-2.592 1.572-4.524 2.988-5.796s3.348-1.908 5.796-1.908c1.728 0 3.18.312 4.356.936s2.136 1.5 2.88 2.628 1.284 2.496 1.62 4.104.504 3.396.504 5.364c0 4.8-.972 8.436-2.916 10.908s-4.572 3.708-7.884 3.708zm48.744 5.04c2.448 0 4.764-.336 6.948-1.008s3.996-1.584 5.436-2.736l-2.16-4.176c-.816.768-2.04 1.44-3.672 2.016s-3.264.864-4.896.864c-2.112 0-3.9-.3-5.364-.9s-2.652-1.464-3.564-2.592-1.584-2.508-2.016-4.14-.648-3.504-.648-5.616h23.112c.288-1.92.432-3.672.432-5.256 0-3.024-.408-5.46-1.224-7.308s-1.872-3.276-3.168-4.284-2.76-1.692-4.392-2.052-3.264-.54-4.896-.54c-5.088 0-9 1.608-11.736 4.824s-4.104 7.896-4.104 14.04c0 2.88.312 5.472.936 7.776s1.584 4.284 2.88 5.94 2.952 2.928 4.968 3.816 4.392 1.332 7.128 1.332zm7.992-22.824h-17.856c.336-3.6 1.356-6.144 3.06-7.632s3.972-2.232 6.804-2.232c2.544 0 4.512.732 5.904 2.196s2.088 4.02 2.088 7.668zm41.792 22.824c2.448 0 4.764-.336 6.948-1.008s3.996-1.584 5.436-2.736l-2.16-4.176c-.816.768-2.04 1.44-3.672 2.016s-3.264.864-4.896.864c-2.112 0-3.9-.3-5.364-.9s-2.652-1.464-3.564-2.592-1.584-2.508-2.016-4.14-.648-3.504-.648-5.616h23.112c.288-1.92.432-3.672.432-5.256 0-3.024-.408-5.46-1.224-7.308s-1.872-3.276-3.168-4.284-2.76-1.692-4.392-2.052-3.264-.54-4.896-.54c-5.088 0-9 1.608-11.736 4.824s-4.104 7.896-4.104 14.04c0 2.88.312 5.472.936 7.776s1.584 4.284 2.88 5.94 2.952 2.928 4.968 3.816 4.392 1.332 7.128 1.332zm7.992-22.824h-17.856c.336-3.6 1.356-6.144 3.06-7.632s3.972-2.232 6.804-2.232c2.544 0 4.512.732 5.904 2.196s2.088 4.02 2.088 7.668z" fill="#5f6c8c"/><path d="m266.695 8.168c.42 0 .821333-.05366667 1.204-.161s.714-.26366667.994-.469l-.364-.854c-.168.13066667-.385.24733333-.651.35s-.567.154-.903.154c-.392 0-.721-.07466667-.987-.224s-.480667-.34766667-.644-.595-.28-.532-.35-.854-.105-.66033333-.105-1.015c0-1.792.662667-2.688 1.988-2.688.298667 0 .578667.035.84.105s.499333.16566667.714.287l.322-.966c-.252-.13066667-.534333-.231-.847-.301s-.693-.105-1.141-.105c-.98 0-1.731333.315-2.254.945s-.784 1.53766667-.784 2.723c0 .55066667.053667 1.05233333.161 1.505s.28.84.518 1.162.543667.56933333.917.742.830667.259 1.372.259zm6.09 0c.989333 0 1.747667-.315 2.275-.945s.791-1.53766667.791-2.723c0-.55066667-.060667-1.05233333-.182-1.505s-.308-.84-.56-1.162-.571667-.56933333-.959-.742-.842333-.259-1.365-.259c-.989333 0-1.747667.315-2.275.945s-.791 1.53766667-.791 2.723c0 .55066667.060667 1.05233333.182 1.505s.308.84.56 1.162.571667.56933333.959.742.842333.259 1.365.259zm0-.98c-.345333 0-.639333-.07466667-.882-.224s-.438667-.34533333-.588-.588-.259-.52733333-.329-.854-.105-.66733333-.105-1.022c0-1.80133333.634667-2.69733333 1.904-2.688.345333 0 .639333.07233333.882.217s.438667.33833333.588.581.259.52733333.329.854.105.672.105 1.036c0 1.80133333-.634667 2.69733333-1.904 2.688zm6.916.91c1.045333 0 1.829333-.16333333 2.352-.49s.784-.854.784-1.582c0-.46666667-.112-.84-.336-1.12s-.611333-.47133333-1.162-.574v-.056c.438667-.14933333.753667-.38033333.945-.693s.287-.63233333.287-.959c0-.57866667-.200667-1.01033333-.602-1.295s-1.064-.427-1.988-.427c-.532 0-.977667.014-1.337.042s-.702333.05133333-1.029.07v6.972c.326667.028.658.05366667.994.077s.7.035 1.092.035zm.406-4.144h-1.372v-2.03c.158667-.00933333.324333-.01866667.497-.028s.408333-.014.707-.014c.56 0 .952.07233333 1.176.217s.336.40366667.336.777c0 .14933333-.039667.28933333-.119.42s-.182.245-.308.343-.268333.175-.427.231-.322.084-.49.084zm-.238 3.164c-.233333 0-.436333-.00466667-.609-.014s-.347667-.02333333-.525-.042v-2.254h1.232c.653333 0 1.108333.105 1.365.315s.385.483.385.819c0 .42933333-.151667.73266667-.455.91s-.767667.266-1.393.266zm5.852.882v-6.02h3.094v6.02h1.12v-7h-5.334v7zm7.938.112c.298667 0 .564667-.03266667.798-.098s.438667-.147.616-.245.329-.21.455-.336.231-.25433333.315-.385h.07l.294.98h.826c-.074667-.26133333-.126-.546-.154-.854s-.042-.63466667-.042-.98c0-.476.014-.98.042-1.512s.042-1.078.042-1.638c0-.252-.025667-.504-.077-.756s-.154-.483-.308-.693-.378-.38033333-.672-.511-.683667-.196-1.169-.196c-.513333 0-1.005667.05133333-1.477.154s-.884333.26133333-1.239.476l.35.84c.130667-.07466667.282333-.14233333.455-.203s.354667-.112.546-.154.378-.07466667.56-.098.352333-.035.511-.035c.541333 0 .914667.10266667 1.12.308s.308.56466667.308 1.078c0 .224-.014.476-.042.756-.130667-.01866667-.259-.028-.385-.028h-.385c-.513333 0-.982333.035-1.407.105s-.788667.18666667-1.092.35-.539.38266667-.707.658-.252.61833333-.252 1.029c0 .308.053667.58333333.161.826s.254333.45033333.441.623.408333.30566667.665.399.534333.14.833.14zm.308-.98c-.364 0-.662667-.105-.896-.315s-.35-.47833333-.35-.805c0-.23333333.063-.427.189-.581s.294-.27533333.504-.364.452667-.14933333.728-.182.557667-.049.847-.049c.130667 0 .263667.00233333.399.007s.268333.01166667.399.021v1.162c-.046667.12133333-.119.24733333-.217.378s-.221667.24966667-.371.357-.326667.196-.532.266-.438667.105-.7.105zm4.816 2.646.21-1.778h5.264l.21 1.778h.756v-2.758h-1.022v-6.02h-4.228c-.018667.98933333-.072333 1.841-.161 2.555s-.191333 1.31133333-.308 1.792-.235667.854-.357 1.12-.219333.45033333-.294.553h-.826v2.758zm4.298-2.758h-3.108c.158667-.29866667.298667-.65333333.42-1.064s.221667-.847.301-1.309.142333-.924.189-1.386.079333-.889.098-1.281h2.1zm6.23 1.148c.476 0 .926333-.06533333 1.351-.196s.777-.308 1.057-.532l-.42-.812c-.158667.14933333-.396667.28-.714.392s-.634667.168-.952.168c-.410667 0-.758333-.05833333-1.043-.175s-.515667-.28466667-.693-.504-.308-.48766667-.392-.805-.126-.68133333-.126-1.092h4.494c.056-.37333333.084-.714.084-1.022 0-.588-.079333-1.06166667-.238-1.421s-.364-.637-.616-.833-.536667-.329-.854-.399-.634667-.105-.952-.105c-.989333 0-1.75.31266667-2.282.938s-.798 1.53533333-.798 2.73c0 .56.060667 1.064.182 1.512s.308.833.56 1.155.574.56933333.966.742.854.259 1.386.259zm1.554-4.438h-3.472c.065333-.7.263667-1.19466667.595-1.484s.772333-.434 1.323-.434c.494667 0 .877333.14233333 1.148.427s.406.78166667.406 1.491zm3.976 4.27v-3.094h3.164v3.094h1.12v-7h-1.12v2.926h-3.164v-2.926h-1.12v7zm7.084 0 3.15-4.116.574-.896h.042l-.042.868v4.144h1.12v-7h-.658l-3.15 4.228-.546.868h-.056l.042-.826v-4.27h-1.12v7zm9.702.168c.476 0 .926333-.06533333 1.351-.196s.777-.308 1.057-.532l-.42-.812c-.158667.14933333-.396667.28-.714.392s-.634667.168-.952.168c-.410667 0-.758333-.05833333-1.043-.175s-.515667-.28466667-.693-.504-.308-.48766667-.392-.805-.126-.68133333-.126-1.092h4.494c.056-.37333333.084-.714.084-1.022 0-.588-.079333-1.06166667-.238-1.421s-.364-.637-.616-.833-.536667-.329-.854-.399-.634667-.105-.952-.105c-.989333 0-1.75.31266667-2.282.938s-.798 1.53533333-.798 2.73c0 .56.060667 1.064.182 1.512s.308.833.56 1.155.574.56933333.966.742.854.259 1.386.259zm1.554-4.438h-3.472c.065333-.7.263667-1.19466667.595-1.484s.772333-.434 1.323-.434c.494667 0 .877333.14233333 1.148.427s.406.78166667.406 1.491z" fill="#5d5d5d"/><path d="m256.809 143v-6.02h3.094v6.02h1.12v-7h-5.334v7zm9.044.168c.989333 0 1.747667-.315 2.275-.945s.791-1.537667.791-2.723c0-.550667-.060667-1.052333-.182-1.505s-.308-.84-.56-1.162-.571667-.569333-.959-.742-.842333-.259-1.365-.259c-.989333 0-1.747667.315-2.275.945s-.791 1.537667-.791 2.723c0 .550667.060667 1.052333.182 1.505s.308.84.56 1.162.571667.569333.959.742.842333.259 1.365.259zm0-.98c-.345333 0-.639333-.074667-.882-.224s-.438667-.345333-.588-.588-.259-.527333-.329-.854-.105-.667333-.105-1.022c0-1.801333.634667-2.697333 1.904-2.688.345333 0 .639333.072333.882.217s.438667.338333.588.581.259.527333.329.854.105.672.105 1.036c0 1.801333-.634667 2.697333-1.904 2.688zm6.314.938c.485333 0 .912333-.053667 1.281-.161s.674333-.254333.917-.441.424667-.406.546-.658.182-.527333.182-.826c0-.476-.109667-.858667-.329-1.148s-.604333-.485333-1.155-.588v-.056c.392-.130667.693-.352333.903-.665s.315-.632333.315-.959c0-1.148-.774667-1.722-2.324-1.722-.522667 0-.973.060667-1.351.182s-.707.261333-.987.42l.322.868c.168-.102667.403667-.21.707-.322s.637-.168 1.001-.168c.504 0 .882.074667 1.134.224s.378.406.378.77c0 .149333-.039667.291667-.119.427s-.184333.252-.315.35-.277667.175-.441.231-.329.084-.497.084h-.98v.91h.812c.644 0 1.106.095667 1.386.287s.42.455.42.791c0 .401333-.149333.7-.448.896s-.732667.294-1.302.294c-.354667 0-.683667-.032667-.987-.098s-.562333-.158667-.777-.28l-.322.924c.252.121333.534333.224.847.308s.707.126 1.183.126zm5.334-.126 3.15-4.116.574-.896h.042l-.042.868v4.144h1.12v-7h-.658l-3.15 4.228-.546.868h-.056l.042-.826v-4.27h-1.12v7zm13.286 1.778v-2.758h-1.008v-6.02h-1.12v6.02h-3.038v-6.02h-1.12v7h5.32l.21 1.778zm2.03-1.778 3.15-4.116.574-.896h.042l-.042.868v4.144h1.12v-7h-.658l-3.15 4.228-.546.868h-.056l.042-.826v-4.27h-1.12v7zm7.56 0 1.848-2.73 1.078-.168v2.898h1.12v-6.944c-.289333-.056-.583333-.107333-.882-.154s-.620667-.07-.966-.07c-.466667 0-.886667.044333-1.26.133s-.695333.231-.966.427-.478333.443333-.623.742-.217.658-.217 1.078c0 .541333.170333.970667.511 1.288s.753667.513333 1.239.588l-.56.518-1.68 2.394zm2.317778-3.528778-.217778.000778c-.541333 0-.977667-.114333-1.309-.343s-.497-.553-.497-.973c0-.466667.156333-.807333.469-1.022s.767667-.322 1.365-.322c.112 0 .242667.011667.392.035s.284667.058333.406.105v2.492c-.186667.009333-.331333.016333-.434.021s-.182.007-.238.007zm-54.768778 20.696778c.42 0 .821333-.053667 1.204-.161s.714-.263667.994-.469l-.364-.854c-.168.130667-.385.247333-.651.35s-.567.154-.903.154c-.392 0-.721-.074667-.987-.224s-.480667-.347667-.644-.595-.28-.532-.35-.854-.105-.660333-.105-1.015c0-1.792.662667-2.688 1.988-2.688.298667 0 .578667.035.84.105s.499333.165667.714.287l.322-.966c-.252-.130667-.534333-.231-.847-.301s-.693-.105-1.141-.105c-.98 0-1.731333.315-2.254.945s-.784 1.537667-.784 2.723c0 .550667.053667 1.052333.161 1.505s.28.84.518 1.162.543667.569333.917.742.830667.259 1.372.259zm6.09 0c.989333 0 1.747667-.315 2.275-.945s.791-1.537667.791-2.723c0-.550667-.060667-1.052333-.182-1.505s-.308-.84-.56-1.162-.571667-.569333-.959-.742-.842333-.259-1.365-.259c-.989333 0-1.747667.315-2.275.945s-.791 1.537667-.791 2.723c0 .550667.060667 1.052333.182 1.505s.308.84.56 1.162.571667.569333.959.742.842333.259 1.365.259zm0-.98c-.345333 0-.639333-.074667-.882-.224s-.438667-.345333-.588-.588-.259-.527333-.329-.854-.105-.667333-.105-1.022c0-1.801333.634667-2.697333 1.904-2.688.345333 0 .639333.072333.882.217s.438667.338333.588.581.259.527333.329.854.105.672.105 1.036c0 1.801333-.634667 2.697333-1.904 2.688zm6.916.91c1.045333 0 1.829333-.163333 2.352-.49s.784-.854.784-1.582c0-.466667-.112-.84-.336-1.12s-.611333-.471333-1.162-.574v-.056c.438667-.149333.753667-.380333.945-.693s.287-.632333.287-.959c0-.578667-.200667-1.010333-.602-1.295s-1.064-.427-1.988-.427c-.532 0-.977667.014-1.337.042s-.702333.051333-1.029.07v6.972c.326667.028.658.053667.994.077s.7.035 1.092.035zm.406-4.144h-1.372v-2.03c.158667-.009333.324333-.018667.497-.028s.408333-.014.707-.014c.56 0 .952.072333 1.176.217s.336.403667.336.777c0 .149333-.039667.289333-.119.42s-.182.245-.308.343-.268333.175-.427.231-.322.084-.49.084zm-.238 3.164c-.233333 0-.436333-.004667-.609-.014s-.347667-.023333-.525-.042v-2.254h1.232c.653333 0 1.108333.105 1.365.315s.385.483.385.819c0 .429333-.151667.732667-.455.91s-.767667.266-1.393.266zm5.852.882v-6.02h3.094v6.02h1.12v-7h-5.334v7zm7.938.112c.298667 0 .564667-.032667.798-.098s.438667-.147.616-.245.329-.21.455-.336.231-.254333.315-.385h.07l.294.98h.826c-.074667-.261333-.126-.546-.154-.854s-.042-.634667-.042-.98c0-.476.014-.98.042-1.512s.042-1.078.042-1.638c0-.252-.025667-.504-.077-.756s-.154-.483-.308-.693-.378-.380333-.672-.511-.683667-.196-1.169-.196c-.513333 0-1.005667.051333-1.477.154s-.884333.261333-1.239.476l.35.84c.130667-.074667.282333-.142333.455-.203s.354667-.112.546-.154.378-.074667.56-.098.352333-.035.511-.035c.541333 0 .914667.102667 1.12.308s.308.564667.308 1.078c0 .224-.014.476-.042.756-.130667-.018667-.259-.028-.385-.028h-.385c-.513333 0-.982333.035-1.407.105s-.788667.186667-1.092.35-.539.382667-.707.658-.252.618333-.252 1.029c0 .308.053667.583333.161.826s.254333.450333.441.623.408333.305667.665.399.534333.14.833.14zm.308-.98c-.364 0-.662667-.105-.896-.315s-.35-.478333-.35-.805c0-.233333.063-.427.189-.581s.294-.275333.504-.364.452667-.149333.728-.182.557667-.049.847-.049c.130667 0 .263667.002333.399.007s.268333.011667.399.021v1.162c-.046667.121333-.119.247333-.217.378s-.221667.249667-.371.357-.326667.196-.532.266-.438667.105-.7.105zm4.816 2.646.21-1.778h5.264l.21 1.778h.756v-2.758h-1.022v-6.02h-4.228c-.018667.989333-.072333 1.841-.161 2.555s-.191333 1.311333-.308 1.792-.235667.854-.357 1.12-.219333.450333-.294.553h-.826v2.758zm4.298-2.758h-3.108c.158667-.298667.298667-.653333.42-1.064s.221667-.847.301-1.309.142333-.924.189-1.386.079333-.889.098-1.281h2.1zm6.23 1.148c.476 0 .926333-.065333 1.351-.196s.777-.308 1.057-.532l-.42-.812c-.158667.149333-.396667.28-.714.392s-.634667.168-.952.168c-.410667 0-.758333-.058333-1.043-.175s-.515667-.284667-.693-.504-.308-.487667-.392-.805-.126-.681333-.126-1.092h4.494c.056-.373333.084-.714.084-1.022 0-.588-.079333-1.061667-.238-1.421s-.364-.637-.616-.833-.536667-.329-.854-.399-.634667-.105-.952-.105c-.989333 0-1.75.312667-2.282.938s-.798 1.535333-.798 2.73c0 .56.060667 1.064.182 1.512s.308.833.56 1.155.574.569333.966.742.854.259 1.386.259zm1.554-4.438h-3.472c.065333-.7.263667-1.194667.595-1.484s.772333-.434 1.323-.434c.494667 0 .877333.142333 1.148.427s.406.781667.406 1.491zm3.976 4.27v-3.094h3.164v3.094h1.12v-7h-1.12v2.926h-3.164v-2.926h-1.12v7zm7.084 0 3.15-4.116.574-.896h.042l-.042.868v4.144h1.12v-7h-.658l-3.15 4.228-.546.868h-.056l.042-.826v-4.27h-1.12v7zm7.56 0 1.848-2.73 1.078-.168v2.898h1.12v-6.944c-.289333-.056-.583333-.107333-.882-.154s-.620667-.07-.966-.07c-.466667 0-.886667.044333-1.26.133s-.695333.231-.966.427-.478333.443333-.623.742-.217.658-.217 1.078c0 .541333.170333.970667.511 1.288s.753667.513333 1.239.588l-.56.518-1.68 2.394zm2.317778-3.528778-.217778.000778c-.541333 0-.977667-.114333-1.309-.343s-.497-.553-.497-.973c0-.466667.156333-.807333.469-1.022s.767667-.322 1.365-.322c.112 0 .242667.011667.392.035s.284667.058333.406.105v2.492c-.186667.009333-.331333.016333-.434.021s-.182.007-.238.007z" fill="#5d5d5d"/><path d="m63.120111 109.374516 9.8625578 1.994982-7.5135203 6.693057-1.0471485-3.873555-.1065442.02624c-5.4021046 1.304957-9.548406 1.958588-12.4514558 1.958588-4.1285652 0-9.120294-1.319887-14.9834576-3.951884l-.5892215-.267573-.454371-.208679.4173581-.908742.4543711.208679c5.9986337 2.754993 11.0534494 4.128199 15.1553209 4.128199 2.8093327 0 6.8868144-.643036 12.2198937-1.931416l.0771063-.019412z" fill="#da3939"/><path d="m112.120111 109.374516 9.862558 1.994982-7.513521 6.693057-1.047148-3.873555-.106544.02624c-5.402105 1.304957-9.548406 1.958588-12.451456 1.958588-4.1285652 0-9.120294-1.319887-14.9834576-3.951884l-.5892215-.267573-.454371-.208679.4173581-.908742.4543711.208679c5.9986337 2.754993 11.0534494 4.128199 15.1553209 4.128199 2.809333 0 6.886814-.643036 12.219894-1.931416l.077106-.019412z" fill="#da3939"/><path d="m161.120111 109.374516 9.862558 1.994982-7.513521 6.693057-1.047148-3.873555-.106544.02624c-5.402105 1.304957-9.548406 1.958588-12.451456 1.958588-4.128565 0-9.120294-1.319887-14.983458-3.951884l-.589221-.267573-.454371-.208679.417358-.908742.454371.208679c5.998634 2.754993 11.053449 4.128199 15.155321 4.128199 2.809333 0 6.886814-.643036 12.219894-1.931416l.077106-.019412z" fill="#da3939"/><path d="m211.120111 109.374516 9.862558 1.994982-7.513521 6.693057-1.047148-3.873555-.106544.02624c-5.402105 1.304957-9.548406 1.958588-12.451456 1.958588-4.128565 0-9.120294-1.319887-14.983458-3.951884l-.589221-.267573-.454371-.208679.417358-.908742.454371.208679c5.998634 2.754993 11.053449 4.128199 15.155321 4.128199 2.809333 0 6.886814-.643036 12.219894-1.931416l.077106-.019412z" fill="#da3939"/><path d="m260.120111 109.374516 9.862558 1.994982-7.513521 6.693057-1.047148-3.873555-.106544.02624c-5.402105 1.304957-9.548406 1.958588-12.451456 1.958588-4.128565 0-9.120294-1.319887-14.983458-3.951884l-.589221-.267573-.454371-.208679.417358-.908742.454371.208679c5.998634 2.754993 11.053449 4.128199 15.155321 4.128199 2.809333 0 6.886814-.643036 12.219894-1.931416l.077106-.019412z" fill="#1e8a1d"/></g><path d="m279 94v31" stroke="#1e8a1d" stroke-linecap="square" stroke-width="2"/></g></svg>