<svg height="170" viewBox="0 0 370 170" width="370" xmlns="http://www.w3.org/2000/svg"><g fill="none" fill-rule="evenodd" transform="translate(23 21)"><path d="m245.8 141.6c1.7 0 3.308333-.233333 4.825-.7s2.775-1.1 3.775-1.9l-1.5-2.9c-.566667.533333-1.416667 1-2.55 1.4s-2.266667.6-3.4.6c-1.466667 0-2.708333-.208333-3.725-.625s-1.841667-1.016667-2.475-1.8-1.1-1.741667-1.4-2.875-.45-2.433333-.45-3.9h16.05c.2-1.333333.3-2.55.3-3.65 0-2.1-.283333-3.791667-.85-5.075s-1.3-2.275-2.2-2.975-1.916667-1.175-3.05-1.425-2.266667-.375-3.4-.375c-3.533333 0-6.25 1.116667-8.15 3.35s-2.85 5.483333-2.85 9.75c0 2 .216667 3.8.65 5.4s1.1 2.975 2 4.125 2.05 2.033333 3.45 2.65 3.05.925 4.95.925zm5.55-15.85h-12.4c.233333-2.5.941667-4.266667 2.125-5.3s2.758333-1.55 4.725-1.55c1.766667 0 3.133333.508333 4.1 1.525s1.45 2.791667 1.45 5.325z" fill="#1e8a1d" fill-rule="nonzero"/><path d="m294.8 141.6c1.7 0 3.308333-.233333 4.825-.7s2.775-1.1 3.775-1.9l-1.5-2.9c-.566667.533333-1.416667 1-2.55 1.4s-2.266667.6-3.4.6c-1.466667 0-2.708333-.208333-3.725-.625s-1.841667-1.016667-2.475-1.8-1.1-1.741667-1.4-2.875-.45-2.433333-.45-3.9h16.05c.2-1.333333.3-2.55.3-3.65 0-2.1-.283333-3.791667-.85-5.075s-1.3-2.275-2.2-2.975-1.916667-1.175-3.05-1.425-2.266667-.375-3.4-.375c-3.533333 0-6.25 1.116667-8.15 3.35s-2.85 5.483333-2.85 9.75c0 2 .216667 3.8.65 5.4s1.1 2.975 2 4.125 2.05 2.033333 3.45 2.65 3.05.925 4.95.925zm5.55-15.85h-12.4c.233333-2.5.941667-4.266667 2.125-5.3s2.758333-1.55 4.725-1.55c1.766667 0 3.133333.508333 4.1 1.525s1.45 2.791667 1.45 5.325z" fill="#1e8a1d" fill-rule="nonzero"/><path d="m.5.5h41v79h-41z" stroke="#e0e0e0"/><path d="m49.5.5h41v79h-41z" stroke="#e0e0e0"/><path d="m98.5.5h41v79h-41z" stroke="#e0e0e0"/><path d="m147.5.5h41v79h-41z" stroke="#e0e0e0"/><path d="m196.5.5h41v79h-41z" stroke="#e0e0e0"/><path d="m246 1h40v78h-40z" stroke="#1e8a1d" stroke-width="2"/><path d="m294.5.5h41v79h-41z" stroke="#e0e0e0"/><g fill-rule="nonzero"><path d="m18.432 60.576c2.448 0 4.788-.324 7.02-.972s4.188-1.632 5.868-2.952 3.024-3.024 4.032-5.112 1.512-4.572 1.512-7.452-.492-5.268-1.476-7.164-2.316-3.396-3.996-4.5-3.624-1.884-5.832-2.34-4.536-.684-6.984-.684c-1.104 0-2.256.072-3.456.216s-2.208.288-3.024.432v-15.12h21.384v-5.328h-27.36v49.896c.912.24 1.908.42 2.988.54s2.184.228 3.312.324 2.208.156 3.24.18 1.956.036 2.772.036zm.72-5.184h-1.944c-.672 0-1.332-.024-1.98-.072s-1.248-.096-1.8-.144-.996-.12-1.332-.216v-19.8c.24-.048.6-.108 1.08-.18s1.008-.132 1.584-.18l1.728-.144c.576-.048 1.08-.072 1.512-.072 1.632 0 3.204.132 4.716.396s2.844.78 3.996 1.548 2.076 1.836 2.772 3.204 1.044 3.156 1.044 5.364c0 1.728-.3 3.24-.9 4.536s-1.416 2.364-2.448 3.204-2.244 1.476-3.636 1.908-2.856.648-4.392.648zm42.568 5.04c5.424 0 9.348-.984 11.772-2.952s3.636-5.136 3.636-9.504c0-1.488-.204-2.892-.612-4.212s-1.116-2.46-2.124-3.42-2.34-1.716-3.996-2.268-3.708-.828-6.156-.828c-.96 0-1.968.036-3.024.108s-2.16.204-3.312.396v-13.752h-5.76v36c3.312.288 6.504.432 9.576.432zm26.856-.432v-36h-5.76v36zm-25.56-4.608c-1.632 0-3.336-.144-5.112-.432v-12.456c.816-.24 1.704-.384 2.664-.432s1.848-.072 2.664-.072c2.928 0 4.98.624 6.156 1.872s1.764 2.832 1.764 4.752c0 2.16-.6 3.828-1.8 5.004s-3.312 1.764-6.336 1.764zm57.896 5.472c2.16 0 4.224-.276 6.192-.828s3.672-1.356 5.112-2.412l-1.872-4.392c-.864.672-1.98 1.272-3.348 1.8s-2.916.792-4.644.792c-2.016 0-3.708-.384-5.076-1.152s-2.472-1.788-3.312-3.06-1.44-2.736-1.8-4.392-.54-3.396-.54-5.22c0-9.216 3.408-13.824 10.224-13.824 1.536 0 2.976.18 4.32.54s2.568.852 3.672 1.476l1.656-4.968c-1.296-.672-2.748-1.188-4.356-1.548s-3.564-.54-5.868-.54c-5.04 0-8.904 1.62-11.592 4.86s-4.032 7.908-4.032 14.004c0 2.832.276 5.412.828 7.74s1.44 4.32 2.664 5.976 2.796 2.928 4.716 3.816 4.272 1.332 7.056 1.332zm50.736-.864v-30.96h11.232v-5.04h-28.224v5.04h11.232v30.96zm37.68 14.4v-14.976c1.2.528 2.316.9 3.348 1.116s2.436.324 4.212.324c2.496 0 4.764-.456 6.804-1.368s3.78-2.208 5.22-3.888 2.556-3.732 3.348-6.156 1.188-5.148 1.188-8.172c0-6.432-1.176-11.064-3.528-13.896s-5.928-4.248-10.728-4.248c-2.256 0-4.26.444-6.012 1.332s-3.18 2.172-4.284 3.852h-.288l-1.08-4.32h-3.96v50.4zm7.344-18.576c-1.824 0-3.288-.18-4.392-.54s-2.088-.876-2.952-1.548v-17.856c.576-2.592 1.572-4.524 2.988-5.796s3.348-1.908 5.796-1.908c1.728 0 3.18.312 4.356.936s2.136 1.5 2.88 2.628 1.284 2.496 1.62 4.104.504 3.396.504 5.364c0 4.8-.972 8.436-2.916 10.908s-4.572 3.708-7.884 3.708zm48.744 5.04c2.448 0 4.764-.336 6.948-1.008s3.996-1.584 5.436-2.736l-2.16-4.176c-.816.768-2.04 1.44-3.672 2.016s-3.264.864-4.896.864c-2.112 0-3.9-.3-5.364-.9s-2.652-1.464-3.564-2.592-1.584-2.508-2.016-4.14-.648-3.504-.648-5.616h23.112c.288-1.92.432-3.672.432-5.256 0-3.024-.408-5.46-1.224-7.308s-1.872-3.276-3.168-4.284-2.76-1.692-4.392-2.052-3.264-.54-4.896-.54c-5.088 0-9 1.608-11.736 4.824s-4.104 7.896-4.104 14.04c0 2.88.312 5.472.936 7.776s1.584 4.284 2.88 5.94 2.952 2.928 4.968 3.816 4.392 1.332 7.128 1.332zm7.992-22.824h-17.856c.336-3.6 1.356-6.144 3.06-7.632s3.972-2.232 6.804-2.232c2.544 0 4.512.732 5.904 2.196s2.088 4.02 2.088 7.668zm41.792 22.824c2.448 0 4.764-.336 6.948-1.008s3.996-1.584 5.436-2.736l-2.16-4.176c-.816.768-2.04 1.44-3.672 2.016s-3.264.864-4.896.864c-2.112 0-3.9-.3-5.364-.9s-2.652-1.464-3.564-2.592-1.584-2.508-2.016-4.14-.648-3.504-.648-5.616h23.112c.288-1.92.432-3.672.432-5.256 0-3.024-.408-5.46-1.224-7.308s-1.872-3.276-3.168-4.284-2.76-1.692-4.392-2.052-3.264-.54-4.896-.54c-5.088 0-9 1.608-11.736 4.824s-4.104 7.896-4.104 14.04c0 2.88.312 5.472.936 7.776s1.584 4.284 2.88 5.94 2.952 2.928 4.968 3.816 4.392 1.332 7.128 1.332zm7.992-22.824h-17.856c.336-3.6 1.356-6.144 3.06-7.632s3.972-2.232 6.804-2.232c2.544 0 4.512.732 5.904 2.196s2.088 4.02 2.088 7.668z" fill="#5f6c8c"/><path d="m30.120111 93.3745158 9.8625578 1.9949821-7.5135203 6.6930571-1.0471485-3.873555-.1065442.0262405c-5.4021046 1.3049561-9.548406 1.9585875-12.4514558 1.9585875-4.1285652 0-9.12029402-1.3198873-14.98345762-3.9518839l-.58922145-.2675731-.45437104-.208679.41735813-.9087421.45437105.2086791c5.99863372 2.7549935 11.05344943 4.1281991 15.15532093 4.1281991 2.8093327 0 6.8868144-.6430363 12.2198937-1.9314159l.0771063-.0194122z" fill="#da3939"/><path d="m79.120111 93.3745158 9.8625578 1.9949821-7.5135203 6.6930571-1.0471485-3.873555-.1065442.0262405c-5.4021046 1.3049561-9.548406 1.9585875-12.4514558 1.9585875-4.1285652 0-9.120294-1.3198873-14.9834576-3.9518839l-.5892215-.2675731-.454371-.208679.4173581-.9087421.4543711.2086791c5.9986337 2.7549935 11.0534494 4.1281991 15.1553209 4.1281991 2.8093327 0 6.8868144-.6430363 12.2198937-1.9314159l.0771063-.0194122z" fill="#da3939"/><path d="m128.120111 93.3745158 9.862558 1.9949821-7.513521 6.6930571-1.047148-3.873555-.106544.0262405c-5.402105 1.3049561-9.548406 1.9585875-12.451456 1.9585875-4.128565 0-9.120294-1.3198873-14.983458-3.9518839l-.589221-.2675731-.454371-.208679.417358-.9087421.454371.2086791c5.998634 2.7549935 11.053449 4.1281991 15.155321 4.1281991 2.809333 0 6.886814-.6430363 12.219894-1.9314159l.077106-.0194122z" fill="#da3939"/><path d="m178.120111 93.3745158 9.862558 1.9949821-7.513521 6.6930571-1.047148-3.873555-.106544.0262405c-5.402105 1.3049561-9.548406 1.9585875-12.451456 1.9585875-4.128565 0-9.120294-1.3198873-14.983458-3.9518839l-.589221-.2675731-.454371-.208679.417358-.9087421.454371.2086791c5.998634 2.7549935 11.053449 4.1281991 15.155321 4.1281991 2.809333 0 6.886814-.6430363 12.219894-1.9314159l.077106-.0194122z" fill="#da3939"/><path d="m227.120111 93.3745158 9.862558 1.9949821-7.513521 6.6930571-1.047148-3.873555-.106544.0262405c-5.402105 1.3049561-9.548406 1.9585875-12.451456 1.9585875-4.128565 0-9.120294-1.3198873-14.983458-3.9518839l-.589221-.2675731-.454371-.208679.417358-.9087421.454371.2086791c5.998634 2.7549935 11.053449 4.1281991 15.155321 4.1281991 2.809333 0 6.886814-.6430363 12.219894-1.9314159l.077106-.0194122z" fill="#1e8a1d"/><path d="m277.120111 93.3745158 9.862558 1.9949821-7.513521 6.6930571-1.047148-3.873555-.106544.0262405c-5.402105 1.3049561-9.548406 1.9585875-12.451456 1.9585875-4.128565 0-9.120294-1.3198873-14.983458-3.9518839l-.589221-.2675731-.454371-.208679.417358-.9087421.454371.2086791c5.998634 2.7549935 11.053449 4.1281991 15.155321 4.1281991 2.809333 0 6.886814-.6430363 12.219894-1.9314159l.077106-.0194122z" fill="#1e8a1d"/></g><path d="m246 78v31" stroke="#1e8a1d" stroke-linecap="square" stroke-width="2"/><path d="m295 1h40v78h-40z" stroke="#1e8a1d" stroke-width="2"/><path d="m295 78v31" stroke="#1e8a1d" stroke-linecap="square" stroke-width="2"/></g></svg>