<svg height="200" viewBox="0 0 650 200" width="650" xmlns="http://www.w3.org/2000/svg"><g fill="none" fill-rule="evenodd"><g transform="translate(23 21)"><path d="m99.8 141.6c1.7 0 3.308333-.233333 4.825-.7s2.775-1.1 3.775-1.9l-1.5-2.9c-.566667.533333-1.416667 1-2.55 1.4s-2.266667.6-3.4.6c-1.4666667 0-2.7083333-.208333-3.725-.625s-1.8416667-1.016667-2.475-1.8-1.1-1.741667-1.4-2.875-.45-2.433333-.45-3.9h16.05c.2-1.333333.3-2.55.3-3.65 0-2.1-.283333-3.791667-.85-5.075s-1.3-2.275-2.2-2.975-1.916667-1.175-3.05-1.425-2.266667-.375-3.4-.375c-3.5333333 0-6.25 1.116667-8.15 3.35s-2.85 5.483333-2.85 9.75c0 2 .2166667 3.8.65 5.4s1.1 2.975 2 4.125 2.05 2.033333 3.45 2.65 3.05.925 4.95.925zm5.55-15.85h-12.4c.2333333-2.5.9416667-4.266667 2.125-5.3s2.7583333-1.55 4.725-1.55c1.766667 0 3.133333.508333 4.1 1.525s1.45 2.791667 1.45 5.325z" fill="#1e8a1d" fill-rule="nonzero"/><path d="m148.8 141.6c1.7 0 3.308333-.233333 4.825-.7s2.775-1.1 3.775-1.9l-1.5-2.9c-.566667.533333-1.416667 1-2.55 1.4s-2.266667.6-3.4.6c-1.466667 0-2.708333-.208333-3.725-.625s-1.841667-1.016667-2.475-1.8-1.1-1.741667-1.4-2.875-.45-2.433333-.45-3.9h16.05c.2-1.333333.3-2.55.3-3.65 0-2.1-.283333-3.791667-.85-5.075s-1.3-2.275-2.2-2.975-1.916667-1.175-3.05-1.425-2.266667-.375-3.4-.375c-3.533333 0-6.25 1.116667-8.15 3.35s-2.85 5.483333-2.85 9.75c0 2 .216667 3.8.65 5.4s1.1 2.975 2 4.125 2.05 2.033333 3.45 2.65 3.05.925 4.95.925zm5.55-15.85h-12.4c.233333-2.5.941667-4.266667 2.125-5.3s2.758333-1.55 4.725-1.55c1.766667 0 3.133333.508333 4.1 1.525s1.45 2.791667 1.45 5.325z" fill="#da3939" fill-rule="nonzero"/><path d="m.5.5h41v79h-41z" stroke="#e0e0e0"/><path d="m49.5.5h41v79h-41z" stroke="#e0e0e0"/><path d="m196.5.5h41v79h-41z" stroke="#e0e0e0"/><path d="m99 1h40v78h-40z" stroke="#1e8a1d" stroke-width="2"/><path d="m284.5.5h41v79h-41z" stroke="#e0e0e0"/><path d="m333.5.5h41v79h-41z" stroke="#e0e0e0"/><path d="m382.5.5h41v79h-41z" stroke="#e0e0e0"/><path d="m431.5.5h41v79h-41z" stroke="#e0e0e0"/><path d="m480.5.5h41v79h-41z" stroke="#e0e0e0"/><g fill-rule="nonzero"><path d="m30.120111 93.3745158 9.8625578 1.9949821-7.5135203 6.6930571-1.0471485-3.873555-.1065442.0262405c-5.4021046 1.3049561-9.548406 1.9585875-12.4514558 1.9585875-4.1285652 0-9.12029402-1.3198873-14.98345762-3.9518839l-.58922145-.2675731-.45437104-.208679.41735813-.9087421.45437105.2086791c5.99863372 2.7549935 11.05344943 4.1281991 15.15532093 4.1281991 2.8093327 0 6.8868144-.6430363 12.2198937-1.9314159l.0771063-.0194122z" fill="#da3939"/><path d="m132.120111 94.3745158 9.862558 1.9949821-7.513521 6.6930571-1.047148-3.873555-.106544.0262405c-5.402105 1.3049565-9.548406 1.9585875-12.451456 1.9585875-4.128565 0-9.120294-1.3198873-14.983458-3.9518839l-.589221-.2675731-.454371-.208679.417358-.9087421.454371.2086791c5.998634 2.7549935 11.053449 4.128199 15.155321 4.128199 2.809333 0 6.886814-.6430362 12.219894-1.9314158l.077106-.0194122z" fill="#da3939"/><path d="m178.120111 95.3745158 9.862558 1.9949821-7.513521 6.6930571-1.047148-3.873555-.106544.02624c-5.402105 1.304957-9.548406 1.958588-12.451456 1.958588-4.128565 0-9.120294-1.319887-14.983458-3.9518839l-.589221-.2675731-.454371-.208679.417358-.9087421.454371.2086791c5.998634 2.7549935 11.053449 4.128199 15.155321 4.128199 2.809333 0 6.886814-.643036 12.219894-1.9314158l.077106-.0194122z" fill="#da3939"/><path d="m226.120111 95.3745158 9.862558 1.9949821-7.513521 6.6930571-1.047148-3.873555-.106544.02624c-5.402105 1.304957-9.548406 1.958588-12.451456 1.958588-4.128565 0-9.120294-1.319887-14.983458-3.9518839l-.589221-.2675731-.454371-.208679.417358-.9087421.454371.2086791c5.998634 2.7549935 11.053449 4.128199 15.155321 4.128199 2.809333 0 6.886814-.643036 12.219894-1.9314158l.077106-.0194122z" fill="#da3939"/><path d="m271.120111 95.3745158 9.862558 1.9949821-7.513521 6.6930571-1.047148-3.873555-.106544.02624c-5.402105 1.304957-9.548406 1.958588-12.451456 1.958588-4.128565 0-9.120294-1.319887-14.983458-3.9518839l-.589221-.2675731-.454371-.208679.417358-.9087421.454371.2086791c5.998634 2.7549935 11.053449 4.128199 15.155321 4.128199 2.809333 0 6.886814-.643036 12.219894-1.9314158l.077106-.0194122z" fill="#da3939"/><path d="m315.120111 95.3745158 9.862558 1.9949821-7.513521 6.6930571-1.047148-3.873555-.106544.02624c-5.402105 1.304957-9.548406 1.958588-12.451456 1.958588-4.128565 0-9.120294-1.319887-14.983458-3.9518839l-.589221-.2675731-.454371-.208679.417358-.9087421.454371.2086791c5.998634 2.7549935 11.053449 4.128199 15.155321 4.128199 2.809333 0 6.886814-.643036 12.219894-1.9314158l.077106-.0194122z" fill="#da3939"/><path d="m363.120111 95.3745158 9.862558 1.9949821-7.513521 6.6930571-1.047148-3.873555-.106544.02624c-5.402105 1.304957-9.548406 1.958588-12.451456 1.958588-4.128565 0-9.120294-1.319887-14.983458-3.9518839l-.589221-.2675731-.454371-.208679.417358-.9087421.454371.2086791c5.998634 2.7549935 11.053449 4.128199 15.155321 4.128199 2.809333 0 6.886814-.643036 12.219894-1.9314158l.077106-.0194122z" fill="#da3939"/><path d="m412.120111 95.3745158 9.862558 1.9949821-7.513521 6.6930571-1.047148-3.873555-.106544.02624c-5.402105 1.304957-9.548406 1.958588-12.451456 1.958588-4.128565 0-9.120294-1.319887-14.983458-3.9518839l-.589221-.2675731-.454371-.208679.417358-.9087421.454371.2086791c5.998634 2.7549935 11.053449 4.128199 15.155321 4.128199 2.809333 0 6.886814-.643036 12.219894-1.9314158l.077106-.0194122z" fill="#da3939"/><path d="m461.120111 95.3745158 9.862558 1.9949821-7.513521 6.6930571-1.047148-3.873555-.106544.02624c-5.402105 1.304957-9.548406 1.958588-12.451456 1.958588-4.128565 0-9.120294-1.319887-14.983458-3.9518839l-.589221-.2675731-.454371-.208679.417358-.9087421.454371.2086791c5.998634 2.7549935 11.053449 4.128199 15.155321 4.128199 2.809333 0 6.886814-.643036 12.219894-1.9314158l.077106-.0194122z" fill="#da3939"/><path d="m510.120111 95.3745158 9.862558 1.9949821-7.513521 6.6930571-1.047148-3.873555-.106544.02624c-5.402105 1.304957-9.548406 1.958588-12.451456 1.958588-4.128565 0-9.120294-1.319887-14.983458-3.9518839l-.589221-.2675731-.454371-.208679.417358-.9087421.454371.2086791c5.998634 2.7549935 11.053449 4.128199 15.155321 4.128199 2.809333 0 6.886814-.643036 12.219894-1.9314158l.077106-.0194122z" fill="#1e8a1d"/><path d="m77.120111 93.3745158 9.8625578 1.9949821-7.5135203 6.6930571-1.0471485-3.873555-.1065442.0262405c-5.4021046 1.3049561-9.548406 1.9585875-12.4514558 1.9585875-4.1285652 0-9.120294-1.3198873-14.9834576-3.9518839l-.5892215-.2675731-.454371-.208679.4173581-.9087421.4543711.2086791c5.9986337 2.7549935 11.0534494 4.1281991 15.1553209 4.1281991 2.8093327 0 6.8868144-.6430363 12.2198937-1.9314159l.0771063-.0194122z" fill="#1e8a1d"/><path d="m114.042007 148.295799-1.406558 3.722541c4.956756 1.655933 8.823208 2.48166 11.584551 2.48166 3.970644 0 9.140563-1.709332 15.491827-5.139885l.547287-.298263.438148-.240886.481772.876296-.438148.240886c-6.736463 3.703589-12.236922 5.561852-16.520886 5.561852-2.890894 0-6.856784-.84713-11.912518-2.536895l-.026482-.009105-1.420938 3.760541-6.82777-7.391316z" fill="#da3939"/></g><path d="m148 1h40v78h-40z" stroke="#da3939" stroke-width="2"/><path d="m19.724 60.576c2.352 0 4.656-.288 6.912-.864s4.26-1.464 6.012-2.664 3.168-2.748 4.248-4.644 1.62-4.14 1.62-6.732c0-1.968-.312-3.672-.936-5.112s-1.44-2.664-2.448-3.672-2.172-1.8-3.492-2.376-2.7-.984-4.14-1.224v-.288c1.632-.432 3.048-1.056 4.248-1.872s2.184-1.764 2.952-2.844 1.344-2.244 1.728-3.492.576-2.472.576-3.672c0-2.496-.516-4.536-1.548-6.12s-2.34-2.82-3.924-3.708-3.348-1.488-5.292-1.8-3.852-.468-5.724-.468c-2.784 0-5.352.096-7.704.288s-4.416.432-6.192.72v49.608c.912.24 1.968.42 3.168.54s2.4.216 3.6.288 2.352.108 3.456.108zm-3.384-28.8h-3.744v-17.136c.672-.144 1.668-.252 2.988-.324s2.772-.108 4.356-.108c1.344 0 2.664.132 3.96.396s2.448.708 3.456 1.332 1.812 1.452 2.412 2.484.9 2.34.9 3.924c0 1.152-.228 2.22-.684 3.204s-1.08 1.848-1.872 2.592-1.692 1.392-2.7 1.944-2.088 1.02-3.24 1.404c-.768.096-1.728.168-2.88.216s-2.136.072-2.952.072zm3.96 23.616c-.576 0-1.248-.012-2.016-.036s-1.512-.06-2.232-.108-1.392-.096-2.016-.144-1.104-.12-1.44-.216v-18.072h6.264c1.584 0 3.168.12 4.752.36s3.012.696 4.284 1.368 2.304 1.608 3.096 2.808 1.188 2.784 1.188 4.752c0 1.584-.324 2.952-.972 4.104s-1.524 2.124-2.628 2.916-2.376 1.368-3.816 1.728-2.928.54-4.464.54zm52.04 5.472c2.16 0 4.224-.276 6.192-.828s3.672-1.356 5.112-2.412l-1.872-4.392c-.864.672-1.98 1.272-3.348 1.8s-2.916.792-4.644.792c-2.016 0-3.708-.384-5.076-1.152s-2.472-1.788-3.312-3.06-1.44-2.736-1.8-4.392-.54-3.396-.54-5.22c0-9.216 3.408-13.824 10.224-13.824 1.536 0 2.976.18 4.32.54s2.568.852 3.672 1.476l1.656-4.968c-1.296-.672-2.748-1.188-4.356-1.548s-3.564-.54-5.868-.54c-5.04 0-8.904 1.62-11.592 4.86s-4.032 7.908-4.032 14.004c0 2.832.276 5.412.828 7.74s1.44 4.32 2.664 5.976 2.796 2.928 4.716 3.816 4.272 1.332 7.056 1.332zm46.464 0c2.448 0 4.764-.336 6.948-1.008s3.996-1.584 5.436-2.736l-2.16-4.176c-.816.768-2.04 1.44-3.672 2.016s-3.264.864-4.896.864c-2.112 0-3.9-.3-5.364-.9s-2.652-1.464-3.564-2.592-1.584-2.508-2.016-4.14-.648-3.504-.648-5.616h23.112c.288-1.92.432-3.672.432-5.256 0-3.024-.408-5.46-1.224-7.308s-1.872-3.276-3.168-4.284-2.76-1.692-4.392-2.052-3.264-.54-4.896-.54c-5.088 0-9 1.608-11.736 4.824s-4.104 7.896-4.104 14.04c0 2.88.312 5.472.936 7.776s1.584 4.284 2.88 5.94 2.952 2.928 4.968 3.816 4.392 1.332 7.128 1.332zm7.992-22.824h-17.856c.336-3.6 1.356-6.144 3.06-7.632s3.972-2.232 6.804-2.232c2.544 0 4.512.732 5.904 2.196s2.088 4.02 2.088 7.668zm38.448 21.96v-30.96h15.264v-5.04h-21.024v36zm51.408.864c5.088 0 8.988-1.62 11.7-4.86s4.068-7.908 4.068-14.004c0-2.832-.312-5.412-.936-7.74s-1.584-4.32-2.88-5.976-2.94-2.928-4.932-3.816-4.332-1.332-7.02-1.332c-5.088 0-8.988 1.62-11.7 4.86s-4.068 7.908-4.068 14.004c0 2.832.312 5.412.936 7.74s1.584 4.32 2.88 5.976 2.94 2.928 4.932 3.816 4.332 1.332 7.02 1.332zm0-5.04c-1.776 0-3.288-.384-4.536-1.152s-2.256-1.776-3.024-3.024-1.332-2.712-1.692-4.392-.54-3.432-.54-5.256c0-9.264 3.264-13.872 9.792-13.824 1.776 0 3.288.372 4.536 1.116s2.256 1.74 3.024 2.988 1.332 2.712 1.692 4.392.54 3.456.54 5.328c0 9.264-3.264 13.872-9.792 13.824z" fill="#5f6c8c" fill-rule="nonzero"/><path d="m148 78v31" stroke="#da3939" stroke-linecap="square" stroke-width="2"/><path d="m99 78v31" stroke="#1e8a1d" stroke-linecap="square" stroke-width="2"/><path d="m530.8 141.6c1.7 0 3.308333-.233333 4.825-.7s2.775-1.1 3.775-1.9l-1.5-2.9c-.566667.533333-1.416667 1-2.55 1.4s-2.266667.6-3.4.6c-1.466667 0-2.708333-.208333-3.725-.625s-1.841667-1.016667-2.475-1.8-1.1-1.741667-1.4-2.875-.45-2.433333-.45-3.9h16.05c.2-1.333333.3-2.55.3-3.65 0-2.1-.283333-3.791667-.85-5.075s-1.3-2.275-2.2-2.975-1.916667-1.175-3.05-1.425-2.266667-.375-3.4-.375c-3.533333 0-6.25 1.116667-8.15 3.35s-2.85 5.483333-2.85 9.75c0 2 .216667 3.8.65 5.4s1.1 2.975 2 4.125 2.05 2.033333 3.45 2.65 3.05.925 4.95.925zm5.55-15.85h-12.4c.233333-2.5.941667-4.266667 2.125-5.3s2.758333-1.55 4.725-1.55c1.766667 0 3.133333.508333 4.1 1.525s1.45 2.791667 1.45 5.325z" fill="#1e8a1d" fill-rule="nonzero"/><path d="m530 1h40v78h-40z" stroke="#1e8a1d" stroke-width="2"/><path d="m530 78v31" stroke="#1e8a1d" stroke-linecap="square" stroke-width="2"/><path d="m579.8 141.6c1.7 0 3.308333-.233333 4.825-.7s2.775-1.1 3.775-1.9l-1.5-2.9c-.566667.533333-1.416667 1-2.55 1.4s-2.266667.6-3.4.6c-1.466667 0-2.708333-.208333-3.725-.625s-1.841667-1.016667-2.475-1.8-1.1-1.741667-1.4-2.875-.45-2.433333-.45-3.9h16.05c.2-1.333333.3-2.55.3-3.65 0-2.1-.283333-3.791667-.85-5.075s-1.3-2.275-2.2-2.975-1.916667-1.175-3.05-1.425-2.266667-.375-3.4-.375c-3.533333 0-6.25 1.116667-8.15 3.35s-2.85 5.483333-2.85 9.75c0 2 .216667 3.8.65 5.4s1.1 2.975 2 4.125 2.05 2.033333 3.45 2.65 3.05.925 4.95.925zm5.55-15.85h-12.4c.233333-2.5.941667-4.266667 2.125-5.3s2.758333-1.55 4.725-1.55c1.766667 0 3.133333.508333 4.1 1.525s1.45 2.791667 1.45 5.325z" fill="#1e8a1d" fill-rule="nonzero"/><path d="m579 1h40v78h-40z" stroke="#1e8a1d" stroke-width="2"/><path d="m579 78v31" stroke="#1e8a1d" stroke-linecap="square" stroke-width="2"/></g><g fill-rule="nonzero"><path d="m328.368 81.864c4.944 0 8.796-1.656 11.556-4.968s4.14-8.208 4.14-14.688c0-5.616-1.188-9.864-3.564-12.744s-5.772-4.32-10.188-4.32c-2.88 0-5.28.468-7.2 1.404s-3.672 2.556-5.256 4.86h-.216c.24-3.12.684-5.628 1.332-7.524s1.536-3.36 2.664-4.392 2.472-1.728 4.032-2.088 3.372-.612 5.436-.756c1.488-.096 2.796-.216 3.924-.36s2.1-.312 2.916-.504 1.512-.432 2.088-.72 1.104-.648 1.584-1.08l-.648-5.184c-.864.816-2.004 1.38-3.42 1.692s-3.372.588-5.868.828c-1.92.192-3.72.432-5.4.72s-3.228.78-4.644 1.476-2.688 1.644-3.816 2.844-2.088 2.808-2.88 4.824-1.392 4.488-1.8 7.416-.612 6.456-.612 10.584c0 7.824 1.32 13.56 3.96 17.208s6.6 5.472 11.88 5.472zm-.072-5.04c-1.68 0-3.144-.36-4.392-1.08s-2.268-1.716-3.06-2.988-1.38-2.748-1.764-4.428-.576-3.432-.576-5.256c0-4.176.864-7.38 2.592-9.612s4.464-3.324 8.208-3.276c1.536 0 2.856.3 3.96.9s2.016 1.464 2.736 2.592 1.248 2.46 1.584 3.996.504 3.216.504 5.04c0 4.656-.804 8.172-2.412 10.548s-4.068 3.564-7.38 3.564zm40.416 4.608c5.424 0 9.348-.984 11.772-2.952s3.636-5.136 3.636-9.504c0-1.488-.204-2.892-.612-4.212s-1.116-2.46-2.124-3.42-2.34-1.716-3.996-2.268-3.708-.828-6.156-.828c-.96 0-1.968.036-3.024.108s-2.16.204-3.312.396v-13.752h-5.76v36c3.312.288 6.504.432 9.576.432zm26.856-.432v-36h-5.76v36zm-25.56-4.608c-1.632 0-3.336-.144-5.112-.432v-12.456c.816-.24 1.704-.384 2.664-.432s1.848-.072 2.664-.072c2.928 0 4.98.624 6.156 1.872s1.764 2.832 1.764 4.752c0 2.16-.6 3.828-1.8 5.004s-3.312 1.764-6.336 1.764zm57.896 5.472c2.16 0 4.224-.276 6.192-.828s3.672-1.356 5.112-2.412l-1.872-4.392c-.864.672-1.98 1.272-3.348 1.8s-2.916.792-4.644.792c-2.016 0-3.708-.384-5.076-1.152s-2.472-1.788-3.312-3.06-1.44-2.736-1.8-4.392-.54-3.396-.54-5.22c0-9.216 3.408-13.824 10.224-13.824 1.536 0 2.976.18 4.32.54s2.568.852 3.672 1.476l1.656-4.968c-1.296-.672-2.748-1.188-4.356-1.548s-3.564-.54-5.868-.54c-5.04 0-8.904 1.62-11.592 4.86s-4.032 7.908-4.032 14.004c0 2.832.276 5.412.828 7.74s1.44 4.32 2.664 5.976 2.796 2.928 4.716 3.816 4.272 1.332 7.056 1.332zm50.736-.864v-30.96h11.232v-5.04h-28.224v5.04h11.232v30.96zm37.68 14.4v-14.976c1.2.528 2.316.9 3.348 1.116s2.436.324 4.212.324c2.496 0 4.764-.456 6.804-1.368s3.78-2.208 5.22-3.888 2.556-3.732 3.348-6.156 1.188-5.148 1.188-8.172c0-6.432-1.176-11.064-3.528-13.896s-5.928-4.248-10.728-4.248c-2.256 0-4.26.444-6.012 1.332s-3.18 2.172-4.284 3.852h-.288l-1.08-4.32h-3.96v50.4zm7.344-18.576c-1.824 0-3.288-.18-4.392-.54s-2.088-.876-2.952-1.548v-17.856c.576-2.592 1.572-4.524 2.988-5.796s3.348-1.908 5.796-1.908c1.728 0 3.18.312 4.356.936s2.136 1.5 2.88 2.628 1.284 2.496 1.62 4.104.504 3.396.504 5.364c0 4.8-.972 8.436-2.916 10.908s-4.572 3.708-7.884 3.708zm50.744 5.04c2.448 0 4.764-.336 6.948-1.008s3.996-1.584 5.436-2.736l-2.16-4.176c-.816.768-2.04 1.44-3.672 2.016s-3.264.864-4.896.864c-2.112 0-3.9-.3-5.364-.9s-2.652-1.464-3.564-2.592-1.584-2.508-2.016-4.14-.648-3.504-.648-5.616h23.112c.288-1.92.432-3.672.432-5.256 0-3.024-.408-5.46-1.224-7.308s-1.872-3.276-3.168-4.284-2.76-1.692-4.392-2.052-3.264-.54-4.896-.54c-5.088 0-9 1.608-11.736 4.824s-4.104 7.896-4.104 14.04c0 2.88.312 5.472.936 7.776s1.584 4.284 2.88 5.94 2.952 2.928 4.968 3.816 4.392 1.332 7.128 1.332zm7.992-22.824h-17.856c.336-3.6 1.356-6.144 3.06-7.632s3.972-2.232 6.804-2.232c2.544 0 4.512.732 5.904 2.196s2.088 4.02 2.088 7.668zm40.792 22.824c2.448 0 4.764-.336 6.948-1.008s3.996-1.584 5.436-2.736l-2.16-4.176c-.816.768-2.04 1.44-3.672 2.016s-3.264.864-4.896.864c-2.112 0-3.9-.3-5.364-.9s-2.652-1.464-3.564-2.592-1.584-2.508-2.016-4.14-.648-3.504-.648-5.616h23.112c.288-1.92.432-3.672.432-5.256 0-3.024-.408-5.46-1.224-7.308s-1.872-3.276-3.168-4.284-2.76-1.692-4.392-2.052-3.264-.54-4.896-.54c-5.088 0-9 1.608-11.736 4.824s-4.104 7.896-4.104 14.04c0 2.88.312 5.472.936 7.776s1.584 4.284 2.88 5.94 2.952 2.928 4.968 3.816 4.392 1.332 7.128 1.332zm7.992-22.824h-17.856c.336-3.6 1.356-6.144 3.06-7.632s3.972-2.232 6.804-2.232c2.544 0 4.512.732 5.904 2.196s2.088 4.02 2.088 7.668z" fill="#5f6c8c"/><path d="m192.198 154v-3.094h3.164v3.094h1.12v-7h-1.12v2.926h-3.164v-2.926h-1.12v7zm9.142.168c.476 0 .926333-.065333 1.351-.196s.777-.308 1.057-.532l-.42-.812c-.158667.149333-.396667.28-.714.392s-.634667.168-.952.168c-.410667 0-.758333-.058333-1.043-.175s-.515667-.284667-.693-.504-.308-.487667-.392-.805-.126-.681333-.126-1.092h4.494c.056-.373333.084-.714.084-1.022 0-.588-.079333-1.061667-.238-1.421s-.364-.637-.616-.833-.536667-.329-.854-.399-.634667-.105-.952-.105c-.989333 0-1.75.312667-2.282.938s-.798 1.535333-.798 2.73c0 .56.060667 1.064.182 1.512s.308.833.56 1.155.574.569333.966.742.854.259 1.386.259zm1.554-4.438h-3.472c.065333-.7.263667-1.194667.595-1.484s.772333-.434 1.323-.434c.494667 0 .877333.142333 1.148.427s.406.781667.406 1.491zm5.432 4.438c.42 0 .821333-.053667 1.204-.161s.714-.263667.994-.469l-.364-.854c-.168.130667-.385.247333-.651.35s-.567.154-.903.154c-.392 0-.721-.074667-.987-.224s-.480667-.347667-.644-.595-.28-.532-.35-.854-.105-.660333-.105-1.015c0-1.792.662667-2.688 1.988-2.688.298667 0 .578667.035.84.105s.499333.165667.714.287l.322-.966c-.252-.130667-.534333-.231-.847-.301s-.693-.105-1.141-.105c-.98 0-1.731333.315-2.254.945s-.784 1.537667-.784 2.723c0 .550667.053667 1.052333.161 1.505s.28.84.518 1.162.543667.569333.917.742.830667.259 1.372.259zm6.412 0c.989333 0 1.747667-.315 2.275-.945s.791-1.537667.791-2.723c0-.550667-.060667-1.052333-.182-1.505s-.308-.84-.56-1.162-.571667-.569333-.959-.742-.842333-.259-1.365-.259c-.989333 0-1.747667.315-2.275.945s-.791 1.537667-.791 2.723c0 .550667.060667 1.052333.182 1.505s.308.84.56 1.162.571667.569333.959.742.842333.259 1.365.259zm0-.98c-.345333 0-.639333-.074667-.882-.224s-.438667-.345333-.588-.588-.259-.527333-.329-.854-.105-.667333-.105-1.022c0-1.801333.634667-2.697333 1.904-2.688.345333 0 .639333.072333.882.217s.438667.338333.588.581.259.527333.329.854.105.672.105 1.036c0 1.801333-.634667 2.697333-1.904 2.688zm6.916.91c1.045333 0 1.829333-.163333 2.352-.49s.784-.854.784-1.582c0-.466667-.112-.84-.336-1.12s-.611333-.471333-1.162-.574v-.056c.438667-.149333.753667-.380333.945-.693s.287-.632333.287-.959c0-.578667-.200667-1.010333-.602-1.295s-1.064-.427-1.988-.427c-.532 0-.977667.014-1.337.042s-.702333.051333-1.029.07v6.972c.326667.028.658.053667.994.077s.7.035 1.092.035zm.406-4.144h-1.372v-2.03c.158667-.009333.324333-.018667.497-.028s.408333-.014.707-.014c.56 0 .952.072333 1.176.217s.336.403667.336.777c0 .149333-.039667.289333-.119.42s-.182.245-.308.343-.268333.175-.427.231-.322.084-.49.084zm-.238 3.164c-.233333 0-.436333-.004667-.609-.014s-.347667-.023333-.525-.042v-2.254h1.232c.653333 0 1.108333.105 1.365.315s.385.483.385.819c0 .429333-.151667.732667-.455.91s-.767667.266-1.393.266zm5.852.882v-6.02h3.094v6.02h1.12v-7h-5.334v7zm7.938.112c.298667 0 .564667-.032667.798-.098s.438667-.147.616-.245.329-.21.455-.336.231-.254333.315-.385h.07l.294.98h.826c-.074667-.261333-.126-.546-.154-.854s-.042-.634667-.042-.98c0-.476.014-.98.042-1.512s.042-1.078.042-1.638c0-.252-.025667-.504-.077-.756s-.154-.483-.308-.693-.378-.380333-.672-.511-.683667-.196-1.169-.196c-.513333 0-1.005667.051333-1.477.154s-.884333.261333-1.239.476l.35.84c.130667-.074667.282333-.142333.455-.203s.354667-.112.546-.154.378-.074667.56-.098.352333-.035.511-.035c.541333 0 .914667.102667 1.12.308s.308.564667.308 1.078c0 .224-.014.476-.042.756-.130667-.018667-.259-.028-.385-.028h-.385c-.513333 0-.982333.035-1.407.105s-.788667.186667-1.092.35-.539.382667-.707.658-.252.618333-.252 1.029c0 .308.053667.583333.161.826s.254333.450333.441.623.408333.305667.665.399.534333.14.833.14zm.308-.98c-.364 0-.662667-.105-.896-.315s-.35-.478333-.35-.805c0-.233333.063-.427.189-.581s.294-.275333.504-.364.452667-.149333.728-.182.557667-.049.847-.049c.130667 0 .263667.002333.399.007s.268333.011667.399.021v1.162c-.046667.121333-.119.247333-.217.378s-.221667.249667-.371.357-.326667.196-.532.266-.438667.105-.7.105zm4.816 2.646.21-1.778h5.264l.21 1.778h.756v-2.758h-1.022v-6.02h-4.228c-.018667.989333-.072333 1.841-.161 2.555s-.191333 1.311333-.308 1.792-.235667.854-.357 1.12-.219333.450333-.294.553h-.826v2.758zm4.298-2.758h-3.108c.158667-.298667.298667-.653333.42-1.064s.221667-.847.301-1.309.142333-.924.189-1.386.079333-.889.098-1.281h2.1zm6.23 1.148c.476 0 .926333-.065333 1.351-.196s.777-.308 1.057-.532l-.42-.812c-.158667.149333-.396667.28-.714.392s-.634667.168-.952.168c-.410667 0-.758333-.058333-1.043-.175s-.515667-.284667-.693-.504-.308-.487667-.392-.805-.126-.681333-.126-1.092h4.494c.056-.373333.084-.714.084-1.022 0-.588-.079333-1.061667-.238-1.421s-.364-.637-.616-.833-.536667-.329-.854-.399-.634667-.105-.952-.105c-.989333 0-1.75.312667-2.282.938s-.798 1.535333-.798 2.73c0 .56.060667 1.064.182 1.512s.308.833.56 1.155.574.569333.966.742.854.259 1.386.259zm1.554-4.438h-3.472c.065333-.7.263667-1.194667.595-1.484s.772333-.434 1.323-.434c.494667 0 .877333.142333 1.148.427s.406.781667.406 1.491zm3.976 4.27v-3.094h3.164v3.094h1.12v-7h-1.12v2.926h-3.164v-2.926h-1.12v7zm7.084 0 3.15-4.116.574-.896h.042l-.042.868v4.144h1.12v-7h-.658l-3.15 4.228-.546.868h-.056l.042-.826v-4.27h-1.12v7zm9.702.168c.476 0 .926333-.065333 1.351-.196s.777-.308 1.057-.532l-.42-.812c-.158667.149333-.396667.28-.714.392s-.634667.168-.952.168c-.410667 0-.758333-.058333-1.043-.175s-.515667-.284667-.693-.504-.308-.487667-.392-.805-.126-.681333-.126-1.092h4.494c.056-.373333.084-.714.084-1.022 0-.588-.079333-1.061667-.238-1.421s-.364-.637-.616-.833-.536667-.329-.854-.399-.634667-.105-.952-.105c-.989333 0-1.75.312667-2.282.938s-.798 1.535333-.798 2.73c0 .56.060667 1.064.182 1.512s.308.833.56 1.155.574.569333.966.742.854.259 1.386.259zm1.554-4.438h-3.472c.065333-.7.263667-1.194667.595-1.484s.772333-.434 1.323-.434c.494667 0 .877333.142333 1.148.427s.406.781667.406 1.491z" fill="#717171"/><path d="m34.654 154.168c.42 0 .8213333-.053667 1.204-.161s.714-.263667.994-.469l-.364-.854c-.168.130667-.385.247333-.651.35s-.567.154-.903.154c-.392 0-.721-.074667-.987-.224s-.4806667-.347667-.644-.595-.28-.532-.35-.854-.105-.660333-.105-1.015c0-1.792.6626667-2.688 1.988-2.688.2986667 0 .5786667.035.84.105s.4993333.165667.714.287l.322-.966c-.252-.130667-.5343333-.231-.847-.301s-.693-.105-1.141-.105c-.98 0-1.7313333.315-2.254.945s-.784 1.537667-.784 2.723c0 .550667.0536667 1.052333.161 1.505s.28.84.518 1.162.5436667.569333.917.742.8306667.259 1.372.259zm6.412 0c.9893333 0 1.7476667-.315 2.275-.945s.791-1.537667.791-2.723c0-.550667-.0606667-1.052333-.182-1.505s-.308-.84-.56-1.162-.5716667-.569333-.959-.742-.8423333-.259-1.365-.259c-.9893333 0-1.7476667.315-2.275.945s-.791 1.537667-.791 2.723c0 .550667.0606667 1.052333.182 1.505s.308.84.56 1.162.5716667.569333.959.742.8423333.259 1.365.259zm0-.98c-.3453333 0-.6393333-.074667-.882-.224s-.4386667-.345333-.588-.588-.259-.527333-.329-.854-.105-.667333-.105-1.022c0-1.801333.6346667-2.697333 1.904-2.688.3453333 0 .6393333.072333.882.217s.4386667.338333.588.581.259.527333.329.854.105.672.105 1.036c0 1.801333-.6346667 2.697333-1.904 2.688zm6.916.91c1.0453333 0 1.8293333-.163333 2.352-.49s.784-.854.784-1.582c0-.466667-.112-.84-.336-1.12s-.6113333-.471333-1.162-.574v-.056c.4386667-.149333.7536667-.380333.945-.693s.287-.632333.287-.959c0-.578667-.2006667-1.010333-.602-1.295s-1.064-.427-1.988-.427c-.532 0-.9776667.014-1.337.042s-.7023333.051333-1.029.07v6.972c.3266667.028.658.053667.994.077s.7.035 1.092.035zm.406-4.144h-1.372v-2.03c.1586667-.009333.3243333-.018667.497-.028s.4083333-.014.707-.014c.56 0 .952.072333 1.176.217s.336.403667.336.777c0 .149333-.0396667.289333-.119.42s-.182.245-.308.343-.2683333.175-.427.231-.322.084-.49.084zm-.238 3.164c-.2333333 0-.4363333-.004667-.609-.014s-.3476667-.023333-.525-.042v-2.254h1.232c.6533333 0 1.1083333.105 1.365.315s.385.483.385.819c0 .429333-.1516667.732667-.455.91s-.7676667.266-1.393.266zm5.852.882v-6.02h3.094v6.02h1.12v-7h-5.334v7zm7.938.112c.2986667 0 .5646667-.032667.798-.098s.4386667-.147.616-.245.329-.21.455-.336.231-.254333.315-.385h.07l.294.98h.826c-.0746667-.261333-.126-.546-.154-.854s-.042-.634667-.042-.98c0-.476.014-.98.042-1.512s.042-1.078.042-1.638c0-.252-.0256667-.504-.077-.756s-.154-.483-.308-.693-.378-.380333-.672-.511-.6836667-.196-1.169-.196c-.5133333 0-1.0056667.051333-1.477.154s-.8843333.261333-1.239.476l.35.84c.1306667-.074667.2823333-.142333.455-.203s.3546667-.112.546-.154.378-.074667.56-.098.3523333-.035.511-.035c.5413333 0 .9146667.102667 1.12.308s.308.564667.308 1.078c0 .224-.014.476-.042.756-.1306667-.018667-.259-.028-.385-.028h-.385c-.5133333 0-.9823333.035-1.407.105s-.7886667.186667-1.092.35-.539.382667-.707.658-.252.618333-.252 1.029c0 .308.0536667.583333.161.826s.2543333.450333.441.623.4083333.305667.665.399.5343333.14.833.14zm.308-.98c-.364 0-.6626667-.105-.896-.315s-.35-.478333-.35-.805c0-.233333.063-.427.189-.581s.294-.275333.504-.364.4526667-.149333.728-.182.5576667-.049.847-.049c.1306667 0 .2636667.002333.399.007s.2683333.011667.399.021v1.162c-.0466667.121333-.119.247333-.217.378s-.2216667.249667-.371.357-.3266667.196-.532.266-.4386667.105-.7.105zm4.816 2.646.21-1.778h5.264l.21 1.778h.756v-2.758h-1.022v-6.02h-4.228c-.0186667.989333-.0723333 1.841-.161 2.555s-.1913333 1.311333-.308 1.792-.2356667.854-.357 1.12-.2193333.450333-.294.553h-.826v2.758zm4.298-2.758h-3.108c.1586667-.298667.2986667-.653333.42-1.064s.2216667-.847.301-1.309.1423333-.924.189-1.386.0793333-.889.098-1.281h2.1zm6.23 1.148c.476 0 .9263333-.065333 1.351-.196s.777-.308 1.057-.532l-.42-.812c-.1586667.149333-.3966667.28-.714.392s-.6346667.168-.952.168c-.4106667 0-.7583333-.058333-1.043-.175s-.5156667-.284667-.693-.504-.308-.487667-.392-.805-.126-.681333-.126-1.092h4.494c.056-.373333.084-.714.084-1.022 0-.588-.0793333-1.061667-.238-1.421s-.364-.637-.616-.833-.5366667-.329-.854-.399-.6346667-.105-.952-.105c-.9893333 0-1.75.312667-2.282.938s-.798 1.535333-.798 2.73c0 .56.0606667 1.064.182 1.512s.308.833.56 1.155.574.569333.966.742.854.259 1.386.259zm1.554-4.438h-3.472c.0653333-.7.2636667-1.194667.595-1.484s.7723333-.434 1.323-.434c.4946667 0 .8773333.142333 1.148.427s.406.781667.406 1.491zm3.976 4.27v-3.094h3.164v3.094h1.12v-7h-1.12v2.926h-3.164v-2.926h-1.12v7zm7.084 0 3.15-4.116.574-.896h.042l-.042.868v4.144h1.12v-7h-.658l-3.15 4.228-.546.868h-.056l.042-.826v-4.27h-1.12v7zm9.702.168c.476 0 .926333-.065333 1.351-.196s.777-.308 1.057-.532l-.42-.812c-.158667.149333-.396667.28-.714.392s-.634667.168-.952.168c-.4106667 0-.7583333-.058333-1.043-.175s-.5156667-.284667-.693-.504-.308-.487667-.392-.805-.126-.681333-.126-1.092h4.494c.056-.373333.084-.714.084-1.022 0-.588-.079333-1.061667-.238-1.421s-.364-.637-.616-.833-.536667-.329-.854-.399-.634667-.105-.952-.105c-.9893333 0-1.75.312667-2.282.938s-.798 1.535333-.798 2.73c0 .56.0606667 1.064.182 1.512s.308.833.56 1.155.574.569333.966.742.854.259 1.386.259zm1.554-4.438h-3.472c.0653333-.7.2636667-1.194667.595-1.484s.7723333-.434 1.323-.434c.494667 0 .877333.142333 1.148.427s.406.781667.406 1.491z" fill="#717171"/><path d="m126.164 190.098c1.045333 0 1.829333-.163333 2.352-.49s.784-.854.784-1.582c0-.466667-.112-.84-.336-1.12s-.611333-.471333-1.162-.574v-.056c.438667-.149333.753667-.380333.945-.693s.287-.632333.287-.959c0-.578667-.200667-1.010333-.602-1.295s-1.064-.427-1.988-.427c-.532 0-.977667.014-1.337.042s-.702333.051333-1.029.07v6.972c.326667.028.658.053667.994.077s.7.035 1.092.035zm.406-4.144h-1.372v-2.03c.158667-.009333.324333-.018667.497-.028s.408333-.014.707-.014c.56 0 .952.072333 1.176.217s.336.403667.336.777c0 .149333-.039667.289333-.119.42s-.182.245-.308.343-.268333.175-.427.231-.322.084-.49.084zm-.238 3.164c-.233333 0-.436333-.004667-.609-.014s-.347667-.023333-.525-.042v-2.254h1.232c.653333 0 1.108333.105 1.365.315s.385.483.385.819c0 .429333-.151667.732667-.455.91s-.767667.266-1.393.266zm7.406 1.05c.989333 0 1.747667-.315 2.275-.945s.791-1.537667.791-2.723c0-.550667-.060667-1.052333-.182-1.505s-.308-.84-.56-1.162-.571667-.569333-.959-.742-.842333-.259-1.365-.259c-.989333 0-1.747667.315-2.275.945s-.791 1.537667-.791 2.723c0 .550667.060667 1.052333.182 1.505s.308.84.56 1.162.571667.569333.959.742.842333.259 1.365.259zm0-.98c-.345333 0-.639333-.074667-.882-.224s-.438667-.345333-.588-.588-.259-.527333-.329-.854-.105-.667333-.105-1.022c0-1.801333.634667-2.697333 1.904-2.688.345333 0 .639333.072333.882.217s.438667.338333.588.581.259.527333.329.854.105.672.105 1.036c0 1.801333-.634667 2.697333-1.904 2.688zm6.314.938c.485333 0 .912333-.053667 1.281-.161s.674333-.254333.917-.441.424667-.406.546-.658.182-.527333.182-.826c0-.476-.109667-.858667-.329-1.148s-.604333-.485333-1.155-.588v-.056c.392-.130667.693-.352333.903-.665s.315-.632333.315-.959c0-1.148-.774667-1.722-2.324-1.722-.522667 0-.973.060667-1.351.182s-.707.261333-.987.42l.322.868c.168-.102667.403667-.21.707-.322s.637-.168 1.001-.168c.504 0 .882.074667 1.134.224s.378.406.378.77c0 .149333-.039667.291667-.119.427s-.184333.252-.315.35-.277667.175-.441.231-.329.084-.497.084h-.98v.91h.812c.644 0 1.106.095667 1.386.287s.42.455.42.791c0 .401333-.149333.7-.448.896s-.732667.294-1.302.294c-.354667 0-.683667-.032667-.987-.098s-.562333-.158667-.777-.28l-.322.924c.252.121333.534333.224.847.308s.707.126 1.183.126zm6.776-.028c1.045333 0 1.829333-.163333 2.352-.49s.784-.854.784-1.582c0-.466667-.112-.84-.336-1.12s-.611333-.471333-1.162-.574v-.056c.438667-.149333.753667-.380333.945-.693s.287-.632333.287-.959c0-.578667-.200667-1.010333-.602-1.295s-1.064-.427-1.988-.427c-.532 0-.977667.014-1.337.042s-.702333.051333-1.029.07v6.972c.326667.028.658.053667.994.077s.7.035 1.092.035zm.406-4.144h-1.372v-2.03c.158667-.009333.324333-.018667.497-.028s.408333-.014.707-.014c.56 0 .952.072333 1.176.217s.336.403667.336.777c0 .149333-.039667.289333-.119.42s-.182.245-.308.343-.268333.175-.427.231-.322.084-.49.084zm-.238 3.164c-.233333 0-.436333-.004667-.609-.014s-.347667-.023333-.525-.042v-2.254h1.232c.653333 0 1.108333.105 1.365.315s.385.483.385.819c0 .429333-.151667.732667-.455.91s-.767667.266-1.393.266zm5.852 3.682v-2.912c.233333.102667.450333.175.651.217s.473667.063.819.063c.485333 0 .926333-.088667 1.323-.266s.735-.429333 1.015-.756.497-.725667.651-1.197.231-1.001.231-1.589c0-1.250667-.228667-2.151333-.686-2.702s-1.152667-.826-2.086-.826c-.438667 0-.828333.086333-1.169.259s-.618333.422333-.833.749h-.056l-.21-.84h-.77v9.8zm1.428-3.612c-.354667 0-.639333-.035-.854-.105s-.406-.170333-.574-.301v-3.472c.112-.504.305667-.879667.581-1.127s.651-.371 1.127-.371c.336 0 .618333.060667.847.182s.415333.291667.56.511.249667.485333.315.798.098.660333.098 1.043c0 .933333-.189 1.640333-.567 2.121s-.889.721-1.533.721zm6.594.924c.298667 0 .564667-.032667.798-.098s.438667-.147.616-.245.329-.21.455-.336.231-.254333.315-.385h.07l.294.98h.826c-.074667-.261333-.126-.546-.154-.854s-.042-.634667-.042-.98c0-.476.014-.98.042-1.512s.042-1.078.042-1.638c0-.252-.025667-.504-.077-.756s-.154-.483-.308-.693-.378-.380333-.672-.511-.683667-.196-1.169-.196c-.513333 0-1.005667.051333-1.477.154s-.884333.261333-1.239.476l.35.84c.130667-.074667.282333-.142333.455-.203s.354667-.112.546-.154.378-.074667.56-.098.352333-.035.511-.035c.541333 0 .914667.102667 1.12.308s.308.564667.308 1.078c0 .224-.014.476-.042.756-.130667-.018667-.259-.028-.385-.028h-.385c-.513333 0-.982333.035-1.407.105s-.788667.186667-1.092.35-.539.382667-.707.658-.252.618333-.252 1.029c0 .308.053667.583333.161.826s.254333.450333.441.623.408333.305667.665.399.534333.14.833.14zm.308-.98c-.364 0-.662667-.105-.896-.315s-.35-.478333-.35-.805c0-.233333.063-.427.189-.581s.294-.275333.504-.364.452667-.149333.728-.182.557667-.049.847-.049c.130667 0 .263667.002333.399.007s.268333.011667.399.021v1.162c-.046667.121333-.119.247333-.217.378s-.221667.249667-.371.357-.326667.196-.532.266-.438667.105-.7.105zm7.336.868v-6.02h2.184v-.98h-5.488v.98h2.184v6.02z" fill="#717171"/></g></g></svg>