<svg xmlns="http://www.w3.org/2000/svg" width="705" height="292" fill="none"><path fill-rule="evenodd" clip-rule="evenodd" d="M374.527 219.61l.618-1.902A5.985 5.985 0 00377 218h4v2h-4a7.992 7.992 0 01-2.473-.39zM693 220v-2h4c.651 0 1.274-.103 1.855-.292l.618 1.902c-.779.253-1.61.39-2.473.39h-4zm12-207.92h-2V8a5.99 5.99 0 00-.292-1.855l1.902-.618c.253.779.39 1.61.39 2.473v4.08zM381 0h-4c-.863 0-1.694.137-2.473.39l.618 1.902A5.988 5.988 0 01377 2h4V0zm-12 207.92h2V212c0 .651.103 1.274.292 1.855l-1.902.618A7.992 7.992 0 01369 212v-4.08zm0-12.24h2v-8.16h-2v8.16zm0-20.4h2v-8.16h-2v8.16zm0-20.4h2v-8.16h-2v8.16zm0-20.4h2v-8.16h-2v8.16zm0-20.4h2v-8.16h-2v8.16zm0-20.4h2v-8.16h-2v8.16zm0-20.4h2v-8.16h-2v8.16zm0-20.4h2v-8.16h-2v8.16zm0-20.4h2v-8.16h-2v8.16zm0-20.4h2V8c0-.65.103-1.274.292-1.855l-1.902-.618A7.99 7.99 0 00369 8v4.08zM393 0v2h8V0h-8zm20 0v2h8V0h-8zm20 0v2h8V0h-8zm20 0v2h8V0h-8zm20 0v2h8V0h-8zm20 0v2h8V0h-8zm20 0v2h8V0h-8zm20 0v2h8V0h-8zm20 0v2h8V0h-8zm20 0v2h8V0h-8zm20 0v2h8V0h-8zm20 0v2h8V0h-8zm20 0v2h8V0h-8zm20 0v2h8V0h-8zm20 0v2h8V0h-8zm20 0v2h4c.651 0 1.274.103 1.855.292l.618-1.902A7.995 7.995 0 00697 0h-4zm12 24.32h-2v8.16h2v-8.16zm0 20.4h-2v8.16h2v-8.16zm0 20.4h-2v8.16h2v-8.16zm0 20.4h-2v8.16h2v-8.16zm0 20.4h-2v8.16h2v-8.16zm0 20.4h-2v8.16h2v-8.16zm0 20.4h-2v8.16h2v-8.16zm0 20.4h-2v8.16h2v-8.16zm0 20.4h-2v8.16h2v-8.16zm0 20.4h-2V212c0 .651-.103 1.274-.292 1.855l1.902.618c.253-.779.39-1.61.39-2.473v-4.08zM681 220v-2h-8v2h8zm-20 0v-2h-8v2h8zm-20 0v-2h-8v2h8zm-20 0v-2h-8v2h8zm-20 0v-2h-8v2h8zm-20 0v-2h-8v2h8zm-20 0v-2h-8v2h8zm-20 0v-2h-8v2h8zm-20 0v-2h-8v2h8zm-20 0v-2h-8v2h8zm-20 0v-2h-8v2h8zm-20 0v-2h-8v2h8zm-20 0v-2h-8v2h8zm-20 0v-2h-8v2h8zm-20 0v-2h-8v2h8z" fill="#D2D5E3"/><g opacity=".2"><path d="M383 12a2 2 0 012-2h147a2 2 0 012 2v76a2 2 0 01-2 2H385a2 2 0 01-2-2V12z" fill="#E2E2E2"/><path d="M550 22a4 4 0 014-4h62a4 4 0 010 8h-62a4 4 0 01-4-4z" fill="#6D61D1"/><path d="M550 36a2 2 0 012-2h123a2 2 0 110 4H552a2 2 0 01-2-2zM550 44a2 2 0 012-2h102a2 2 0 110 4H552a2 2 0 01-2-2z" fill="#AAA"/></g><path d="M369 58a8 8 0 018-8h320a8 8 0 018 8v154a8 8 0 01-8 8H377a8 8 0 01-8-8V58z" fill="#fff"/><path fill-rule="evenodd" clip-rule="evenodd" d="M697 52H377a6 6 0 00-6 6v154a6 6 0 006 6h320a6 6 0 006-6V58a6 6 0 00-6-6zm-320-2a8 8 0 00-8 8v154a8 8 0 008 8h320a8 8 0 008-8V58a8 8 0 00-8-8H377z" fill="#D2D5E3"/><path d="M369 58a8 8 0 018-8h320a8 8 0 018 8v16H369V58z" fill="#D2D5E3"/><mask id="a" maskUnits="userSpaceOnUse" x="371" y="74" width="332" height="144"><path d="M371 74h332v138a6 6 0 01-6 6H377a6 6 0 01-6-6V74z" fill="#D2D5E3"/></mask><g mask="url(#a)"><path d="M383 116a2 2 0 012-2h86a2 2 0 012 2v56a2 2 0 01-2 2h-86a2 2 0 01-2-2v-56zM485 116a2 2 0 012-2h86a2 2 0 012 2v56a2 2 0 01-2 2h-86a2 2 0 01-2-2v-56zM587 116a2 2 0 012-2h86a2 2 0 012 2v56a2 2 0 01-2 2h-86a2 2 0 01-2-2v-56z" fill="#E2E2E2"/><path d="M383 186a2 2 0 012-2h66a2 2 0 110 4h-66a2 2 0 01-2-2zM587 186a2 2 0 012-2h66a2 2 0 110 4h-66a2 2 0 01-2-2zM485 186a2 2 0 012-2h66a2 2 0 110 4h-66a2 2 0 01-2-2z" fill="#6D61D1"/><path d="M383 195a1 1 0 011-1h81a1 1 0 010 2h-81a1 1 0 01-1-1zM587 195a1 1 0 011-1h81a1 1 0 010 2h-81a1 1 0 01-1-1zM485 201a1 1 0 011-1h81a1 1 0 010 2h-81a1 1 0 01-1-1zM383 201a1 1 0 011-1h88a1 1 0 010 2h-88a1 1 0 01-1-1zM587 207a1 1 0 011-1h88a1 1 0 010 2h-88a1 1 0 01-1-1zM485 195a1 1 0 011-1h88a1 1 0 010 2h-88a1 1 0 01-1-1zM383 207a1 1 0 011-1h75a1 1 0 010 2h-75a1 1 0 01-1-1zM587 201a1 1 0 011-1h74a1 1 0 010 2h-74a1 1 0 01-1-1z" fill="#AAA"/><path d="M383 12a2 2 0 012-2h147a2 2 0 012 2v76a2 2 0 01-2 2H385a2 2 0 01-2-2V12z" fill="#E2E2E2"/><path d="M550 68a2 2 0 012-2h60a2 2 0 012 2v12a2 2 0 01-2 2h-60a2 2 0 01-2-2V68z" fill="#4EB543"/><path d="M691 218h12V74h-12v144z" fill="#302683"/><path d="M694 197a3 3 0 106 0v-41a3 3 0 10-6 0v41zM693 206l4 8 4-8h-8zM693 86l4-8 4 8h-8z" fill="#fff"/></g><path fill-rule="evenodd" clip-rule="evenodd" d="M0 75.855V72h3.953v2H2v1.855H0zM23.718 72h-7.906v2h7.906v-2zM0 280.145h2V284c0 .651.103 1.274.292 1.855l-1.902.618A7.995 7.995 0 010 284v-3.855zM324 292v-2h4c.651 0 1.274-.103 1.855-.292l.618 1.902c-.779.253-1.61.39-2.473.39h-4zM35.576 72v2h7.906v-2h-7.906zm19.765 0v2h7.906v-2h-7.906zm19.765 0v2h7.906v-2h-7.906zm19.765 0v2h7.905v-2h-7.905zm19.764 0v2h7.906v-2h-7.906zm19.765 0v2h7.906v-2H134.4zm19.765 0v2h7.906v-2h-7.906zm19.764 0v2h7.906v-2h-7.906zm19.765 0v2h7.906v-2h-7.906zm19.765 0v2h7.906v-2h-7.906zm19.765 0v2h7.905v-2h-7.905zm19.764 0v2h7.906v-2h-7.906zm19.765 0v2h7.906v-2h-7.906zm19.765 0v2h7.906v-2h-7.906zm19.764 0v2h7.906v-2h-7.906zm19.765 0v2H334v1.855h2V72h-3.953zM336 87.418h-2v7.71h2v-7.71zm0 19.273h-2v7.709h2v-7.709zm0 19.273h-2v7.709h2v-7.709zm0 19.272h-2v7.709h2v-7.709zm0 19.273h-2v7.709h2v-7.709zm0 19.273h-2v7.709h2v-7.709zm0 19.273h-2v7.709h2v-7.709zm0 19.272h-2v7.709h2v-7.709zm0 19.273h-2v7.709h2V241.6zm0 19.273h-2v7.709h2v-7.709zm0 19.272h-2V284c0 .651-.103 1.274-.292 1.855l1.902.618c.253-.779.39-1.61.39-2.473v-3.855zM312 292v-2h-8v2h8zm-20 0v-2h-8v2h8zm-20 0v-2h-8v2h8zm-20 0v-2h-8v2h8zm-20 0v-2h-8v2h8zm-20 0v-2h-8v2h8zm-20 0v-2h-8v2h8zm-20 0v-2h-8v2h8zm-20 0v-2h-8v2h8zm-20 0v-2h-8v2h8zm-20 0v-2h-8v2h8zm-20 0v-2h-8v2h8zm-20 0v-2h-8v2h8zm-20 0v-2h-8v2h8zm-20 0v-2h-8v2h8zm-20 0v-2H8a5.99 5.99 0 01-1.855-.292l-.618 1.902A7.99 7.99 0 008 292h4zM0 268.582h2v-7.709H0v7.709zm0-19.273h2V241.6H0v7.709zm0-19.273h2v-7.709H0v7.709zm0-19.272h2v-7.709H0v7.709zm0-19.273h2v-7.709H0v7.709zm0-19.273h2v-7.709H0v7.709zm0-19.273h2v-7.709H0v7.709zm0-19.272h2v-7.709H0v7.709zM0 114.4h2v-7.709H0v7.709zm0-19.273h2v-7.709H0v7.71z" fill="#D2D5E3"/><g opacity=".2"><path d="M14 188a2 2 0 012-2h86a2 2 0 012 2v56a2 2 0 01-2 2H16a2 2 0 01-2-2v-56zM116 188a2 2 0 012-2h86a2 2 0 012 2v56a2 2 0 01-2 2h-86a2 2 0 01-2-2v-56zM218 188a2 2 0 012-2h86a2 2 0 012 2v56a2 2 0 01-2 2h-86a2 2 0 01-2-2v-56z" fill="#E2E2E2"/><path d="M14 258a2 2 0 012-2h66a2 2 0 110 4H16a2 2 0 01-2-2zM218 258a2 2 0 012-2h66a2 2 0 110 4h-66a2 2 0 01-2-2zM116 258a2 2 0 012-2h66a2 2 0 110 4h-66a2 2 0 01-2-2z" fill="#6D61D1"/><path d="M14 267a1 1 0 011-1h81a1 1 0 010 2H15a1 1 0 01-1-1zM218 267a1 1 0 011-1h81a1 1 0 010 2h-81a1 1 0 01-1-1zM116 273a1 1 0 011-1h81a1 1 0 010 2h-81a1 1 0 01-1-1zM14 273a1 1 0 011-1h88a1 1 0 010 2H15a1 1 0 01-1-1zM218 279a1 1 0 011-1h88a1 1 0 010 2h-88a1 1 0 01-1-1zM116 267a1 1 0 011-1h88a1 1 0 010 2h-88a1 1 0 01-1-1zM14 279a1 1 0 011-1h75a1 1 0 010 2H15a1 1 0 01-1-1zM218 273a1 1 0 011-1h74a1 1 0 010 2h-74a1 1 0 01-1-1z" fill="#AAA"/></g><path d="M0 58a8 8 0 018-8h320a8 8 0 018 8v154a8 8 0 01-8 8H8a8 8 0 01-8-8V58z" fill="#fff"/><path fill-rule="evenodd" clip-rule="evenodd" d="M328 52H8a6 6 0 00-6 6v154a6 6 0 006 6h320a6 6 0 006-6V58a6 6 0 00-6-6zM8 50a8 8 0 00-8 8v154a8 8 0 008 8h320a8 8 0 008-8V58a8 8 0 00-8-8H8z" fill="#D2D5E3"/><path d="M0 58a8 8 0 018-8h320a8 8 0 018 8v16H0V58z" fill="#D2D5E3"/><mask id="b" maskUnits="userSpaceOnUse" x="2" y="74" width="332" height="144"><path d="M2 74h332v138a6 6 0 01-6 6H8a6 6 0 01-6-6V74z" fill="#D2D5E3"/></mask><g mask="url(#b)"><path d="M14 188a2 2 0 012-2h86a2 2 0 012 2v56a2 2 0 01-2 2H16a2 2 0 01-2-2v-56zM116 188a2 2 0 012-2h86a2 2 0 012 2v56a2 2 0 01-2 2h-86a2 2 0 01-2-2v-56zM218 188a2 2 0 012-2h86a2 2 0 012 2v56a2 2 0 01-2 2h-86a2 2 0 01-2-2v-56zM14 84a2 2 0 012-2h147a2 2 0 012 2v76a2 2 0 01-2 2H16a2 2 0 01-2-2V84z" fill="#E2E2E2"/><path d="M181 94a4 4 0 014-4h62a4 4 0 010 8h-62a4 4 0 01-4-4z" fill="#6D61D1"/><path d="M181 108a2 2 0 012-2h123a2 2 0 110 4H183a2 2 0 01-2-2zM181 116a2 2 0 012-2h102a2 2 0 110 4H183a2 2 0 01-2-2zM181 124a2 2 0 012-2h79a2 2 0 110 4h-79a2 2 0 01-2-2z" fill="#AAA"/><path d="M181 140a2 2 0 012-2h60a2 2 0 012 2v12a2 2 0 01-2 2h-60a2 2 0 01-2-2v-12z" fill="#4EB543"/><path d="M322 74h12v144h-12V74z" fill="#302683"/><path d="M325 95a3 3 0 116 0v41a3 3 0 11-6 0V95zM324 86l4-8 4 8h-8zM324 206l4 8 4-8h-8z" fill="#fff"/></g></svg>