<svg width="705" height="292" fill="none" xmlns="http://www.w3.org/2000/svg"><path fill-rule="evenodd" clip-rule="evenodd" d="M374.527 219.61l.618-1.902A5.985 5.985 0 00377 218h4v2h-4a7.992 7.992 0 01-2.473-.39zM693 220v-2h4c.651 0 1.274-.103 1.855-.292l.618 1.902c-.779.253-1.61.39-2.473.39h-4zm12-207.92h-2V8a5.99 5.99 0 00-.292-1.855l1.902-.618c.253.779.39 1.61.39 2.473v4.08zM381 0h-4c-.863 0-1.694.137-2.473.39l.618 1.902A5.988 5.988 0 01377 2h4V0zm-12 207.92h2V212c0 .651.103 1.274.292 1.855l-1.902.618A7.992 7.992 0 01369 212v-4.08zm0-12.24h2v-8.16h-2v8.16zm0-20.4h2v-8.16h-2v8.16zm0-20.4h2v-8.16h-2v8.16zm0-20.4h2v-8.16h-2v8.16zm0-20.4h2v-8.16h-2v8.16zm0-20.4h2v-8.16h-2v8.16zm0-20.4h2v-8.16h-2v8.16zm0-20.4h2v-8.16h-2v8.16zm0-20.4h2v-8.16h-2v8.16zm0-20.4h2V8c0-.65.103-1.274.292-1.855l-1.902-.618A7.99 7.99 0 00369 8v4.08zM393 0v2h8V0h-8zm20 0v2h8V0h-8zm20 0v2h8V0h-8zm20 0v2h8V0h-8zm20 0v2h8V0h-8zm20 0v2h8V0h-8zm20 0v2h8V0h-8zm20 0v2h8V0h-8zm20 0v2h8V0h-8zm20 0v2h8V0h-8zm20 0v2h8V0h-8zm20 0v2h8V0h-8zm20 0v2h8V0h-8zm20 0v2h8V0h-8zm20 0v2h8V0h-8zm20 0v2h4c.651 0 1.274.103 1.855.292l.618-1.902A7.995 7.995 0 00697 0h-4zm12 24.32h-2v8.16h2v-8.16zm0 20.4h-2v8.16h2v-8.16zm0 20.4h-2v8.16h2v-8.16zm0 20.4h-2v8.16h2v-8.16zm0 20.4h-2v8.16h2v-8.16zm0 20.4h-2v8.16h2v-8.16zm0 20.4h-2v8.16h2v-8.16zm0 20.4h-2v8.16h2v-8.16zm0 20.4h-2v8.16h2v-8.16zm0 20.4h-2V212c0 .651-.103 1.274-.292 1.855l1.902.618c.253-.779.39-1.61.39-2.473v-4.08zM681 220v-2h-8v2h8zm-20 0v-2h-8v2h8zm-20 0v-2h-8v2h8zm-20 0v-2h-8v2h8zm-20 0v-2h-8v2h8zm-20 0v-2h-8v2h8zm-20 0v-2h-8v2h8zm-20 0v-2h-8v2h8zm-20 0v-2h-8v2h8zm-20 0v-2h-8v2h8zm-20 0v-2h-8v2h8zm-20 0v-2h-8v2h8zm-20 0v-2h-8v2h8zm-20 0v-2h-8v2h8zm-20 0v-2h-8v2h8z" fill="#D2D5E3"/><g opacity=".2"><path d="M383 12a2 2 0 012-2h147a2 2 0 012 2v76a2 2 0 01-2 2H385a2 2 0 01-2-2V12z" fill="#E2E2E2"/><path d="M550 22a4 4 0 014-4h62a4 4 0 010 8h-62a4 4 0 01-4-4z" fill="#6D61D1"/><path d="M550 36a2 2 0 012-2h123a2 2 0 110 4H552a2 2 0 01-2-2zM550 44a2 2 0 012-2h102a2 2 0 110 4H552a2 2 0 01-2-2z" fill="#AAA"/></g><path d="M369 58a8 8 0 018-8h320a8 8 0 018 8v154a8 8 0 01-8 8H377a8 8 0 01-8-8V58z" fill="#fff"/><path fill-rule="evenodd" clip-rule="evenodd" d="M697 52H377a6 6 0 00-6 6v154a6 6 0 006 6h320a6 6 0 006-6V58a6 6 0 00-6-6zm-320-2a8 8 0 00-8 8v154a8 8 0 008 8h320a8 8 0 008-8V58a8 8 0 00-8-8H377z" fill="#D2D5E3"/><path d="M369 58a8 8 0 018-8h320a8 8 0 018 8v16H369V58z" fill="#D2D5E3"/><mask id="a" maskUnits="userSpaceOnUse" x="371" y="74" width="332" height="144"><path d="M371 74h332v138a6 6 0 01-6 6H377a6 6 0 01-6-6V74z" fill="#D2D5E3"/></mask><g mask="url(#a)"><path d="M383 116a2 2 0 012-2h86a2 2 0 012 2v56a2 2 0 01-2 2h-86a2 2 0 01-2-2v-56zM485 116a2 2 0 012-2h86a2 2 0 012 2v56a2 2 0 01-2 2h-86a2 2 0 01-2-2v-56zM587 116a2 2 0 012-2h86a2 2 0 012 2v56a2 2 0 01-2 2h-86a2 2 0 01-2-2v-56z" fill="#E2E2E2"/><path d="M383 186a2 2 0 012-2h66a2 2 0 110 4h-66a2 2 0 01-2-2zM587 186a2 2 0 012-2h66a2 2 0 110 4h-66a2 2 0 01-2-2zM485 186a2 2 0 012-2h66a2 2 0 110 4h-66a2 2 0 01-2-2z" fill="#6D61D1"/><path d="M383 195a1 1 0 011-1h81a1 1 0 010 2h-81a1 1 0 01-1-1zM587 195a1 1 0 011-1h81a1 1 0 010 2h-81a1 1 0 01-1-1zM485 201a1 1 0 011-1h81a1 1 0 010 2h-81a1 1 0 01-1-1zM383 201a1 1 0 011-1h88a1 1 0 010 2h-88a1 1 0 01-1-1zM587 207a1 1 0 011-1h88a1 1 0 010 2h-88a1 1 0 01-1-1zM485 195a1 1 0 011-1h88a1 1 0 010 2h-88a1 1 0 01-1-1zM383 207a1 1 0 011-1h75a1 1 0 010 2h-75a1 1 0 01-1-1zM587 201a1 1 0 011-1h74a1 1 0 010 2h-74a1 1 0 01-1-1z" fill="#AAA"/><path d="M383 12a2 2 0 012-2h147a2 2 0 012 2v76a2 2 0 01-2 2H385a2 2 0 01-2-2V12z" fill="#E2E2E2"/><path d="M550 68a2 2 0 012-2h60a2 2 0 012 2v12a2 2 0 01-2 2h-60a2 2 0 01-2-2V68z" fill="#4EB543"/><path d="M691 218h12V74h-12v144z" fill="#302683"/><path d="M694 197a3 3 0 106 0v-41a3 3 0 10-6 0v41zM693 206l4 8 4-8h-8zM693 86l4-8 4 8h-8z" fill="#fff"/></g><path fill-rule="evenodd" clip-rule="evenodd" d="M0 75.855V72h3.953v2H2v1.855H0zM23.718 72h-7.906v2h7.906v-2zM0 280.145h2V284c0 .651.103 1.274.292 1.855l-1.902.618A7.995 7.995 0 010 284v-3.855zM324 292v-2h4c.651 0 1.274-.103 1.855-.292l.618 1.902c-.779.253-1.61.39-2.473.39h-4zM35.576 72v2h7.906v-2h-7.906zm19.765 0v2h7.906v-2h-7.906zm19.765 0v2h7.906v-2h-7.906zm19.765 0v2h7.905v-2h-7.905zm19.764 0v2h7.906v-2h-7.906zm19.765 0v2h7.906v-2H134.4zm19.765 0v2h7.906v-2h-7.906zm19.764 0v2h7.906v-2h-7.906zm19.765 0v2h7.906v-2h-7.906zm19.765 0v2h7.906v-2h-7.906zm19.765 0v2h7.905v-2h-7.905zm19.764 0v2h7.906v-2h-7.906zm19.765 0v2h7.906v-2h-7.906zm19.765 0v2h7.906v-2h-7.906zm19.764 0v2h7.906v-2h-7.906zm19.765 0v2H334v1.855h2V72h-3.953zM336 87.418h-2v7.71h2v-7.71zm0 19.273h-2v7.709h2v-7.709zm0 19.273h-2v7.709h2v-7.709zm0 19.272h-2v7.709h2v-7.709zm0 19.273h-2v7.709h2v-7.709zm0 19.273h-2v7.709h2v-7.709zm0 19.273h-2v7.709h2v-7.709zm0 19.272h-2v7.709h2v-7.709zm0 19.273h-2v7.709h2V241.6zm0 19.273h-2v7.709h2v-7.709zm0 19.272h-2V284c0 .651-.103 1.274-.292 1.855l1.902.618c.253-.779.39-1.61.39-2.473v-3.855zM312 292v-2h-8v2h8zm-20 0v-2h-8v2h8zm-20 0v-2h-8v2h8zm-20 0v-2h-8v2h8zm-20 0v-2h-8v2h8zm-20 0v-2h-8v2h8zm-20 0v-2h-8v2h8zm-20 0v-2h-8v2h8zm-20 0v-2h-8v2h8zm-20 0v-2h-8v2h8zm-20 0v-2h-8v2h8zm-20 0v-2h-8v2h8zm-20 0v-2h-8v2h8zm-20 0v-2h-8v2h8zm-20 0v-2h-8v2h8zm-20 0v-2H8a5.99 5.99 0 01-1.855-.292l-.618 1.902A7.99 7.99 0 008 292h4zM0 268.582h2v-7.709H0v7.709zm0-19.273h2V241.6H0v7.709zm0-19.273h2v-7.709H0v7.709zm0-19.272h2v-7.709H0v7.709zm0-19.273h2v-7.709H0v7.709zm0-19.273h2v-7.709H0v7.709zm0-19.273h2v-7.709H0v7.709zm0-19.272h2v-7.709H0v7.709zM0 114.4h2v-7.709H0v7.709zm0-19.273h2v-7.709H0v7.71z" fill="#D2D5E3"/><g opacity=".2"><path d="M14 188a2 2 0 012-2h86a2 2 0 012 2v56a2 2 0 01-2 2H16a2 2 0 01-2-2v-56zM116 188a2 2 0 012-2h86a2 2 0 012 2v56a2 2 0 01-2 2h-86a2 2 0 01-2-2v-56zM218 188a2 2 0 012-2h86a2 2 0 012 2v56a2 2 0 01-2 2h-86a2 2 0 01-2-2v-56z" fill="#E2E2E2"/><path d="M14 258a2 2 0 012-2h66a2 2 0 110 4H16a2 2 0 01-2-2zM218 258a2 2 0 012-2h66a2 2 0 110 4h-66a2 2 0 01-2-2zM116 258a2 2 0 012-2h66a2 2 0 110 4h-66a2 2 0 01-2-2z" fill="#6D61D1"/><path d="M14 267a1 1 0 011-1h81a1 1 0 010 2H15a1 1 0 01-1-1zM218 267a1 1 0 011-1h81a1 1 0 010 2h-81a1 1 0 01-1-1zM116 273a1 1 0 011-1h81a1 1 0 010 2h-81a1 1 0 01-1-1zM14 273a1 1 0 011-1h88a1 1 0 010 2H15a1 1 0 01-1-1zM218 279a1 1 0 011-1h88a1 1 0 010 2h-88a1 1 0 01-1-1zM116 267a1 1 0 011-1h88a1 1 0 010 2h-88a1 1 0 01-1-1zM14 279a1 1 0 011-1h75a1 1 0 010 2H15a1 1 0 01-1-1zM218 273a1 1 0 011-1h74a1 1 0 010 2h-74a1 1 0 01-1-1z" fill="#AAA"/></g><path d="M0 58a8 8 0 018-8h320a8 8 0 018 8v154a8 8 0 01-8 8H8a8 8 0 01-8-8V58z" fill="#fff"/><path fill-rule="evenodd" clip-rule="evenodd" d="M328 52H8a6 6 0 00-6 6v154a6 6 0 006 6h320a6 6 0 006-6V58a6 6 0 00-6-6zM8 50a8 8 0 00-8 8v154a8 8 0 008 8h320a8 8 0 008-8V58a8 8 0 00-8-8H8z" fill="#D2D5E3"/><path d="M0 58a8 8 0 018-8h320a8 8 0 018 8v16H0V58z" fill="#D2D5E3"/><mask id="b" maskUnits="userSpaceOnUse" x="2" y="74" width="332" height="144"><path d="M2 74h332v138a6 6 0 01-6 6H8a6 6 0 01-6-6V74z" fill="#D2D5E3"/></mask><g mask="url(#b)"><path d="M14 188a2 2 0 012-2h86a2 2 0 012 2v56a2 2 0 01-2 2H16a2 2 0 01-2-2v-56zM116 188a2 2 0 012-2h86a2 2 0 012 2v56a2 2 0 01-2 2h-86a2 2 0 01-2-2v-56zM218 188a2 2 0 012-2h86a2 2 0 012 2v56a2 2 0 01-2 2h-86a2 2 0 01-2-2v-56zM14 84a2 2 0 012-2h147a2 2 0 012 2v76a2 2 0 01-2 2H16a2 2 0 01-2-2V84z" fill="#E2E2E2"/><path d="M181 94a4 4 0 014-4h62a4 4 0 010 8h-62a4 4 0 01-4-4z" fill="#6D61D1"/><path d="M181 108a2 2 0 012-2h123a2 2 0 110 4H183a2 2 0 01-2-2zM181 116a2 2 0 012-2h102a2 2 0 110 4H183a2 2 0 01-2-2zM181 124a2 2 0 012-2h79a2 2 0 110 4h-79a2 2 0 01-2-2z" fill="#AAA"/><path d="M181 140a2 2 0 012-2h60a2 2 0 012 2v12a2 2 0 01-2 2h-60a2 2 0 01-2-2v-12z" fill="#4EB543"/><path d="M322 74h12v144h-12V74z" fill="#302683"/><path d="M325 95a3 3 0 116 0v41a3 3 0 11-6 0V95zM324 86l4-8 4 8h-8zM324 206l4 8 4-8h-8z" fill="#fff"/></g><path d="M12 78a6 6 0 11-12 0 6 6 0 0112 0z" fill="#E84E1B"/><path fill-rule="evenodd" clip-rule="evenodd" d="M377 62V10h-4v52h4z" fill="#E84E1B"/><path d="M368 60l7 14 7-14h-14zM368 14l7-14 7 14h-14zM395.864 60.32l-1.712 5.808-1.888-5.808h-1.6l-1.872 5.808-1.728-5.808h-1.808l2.56 7.68h1.824l1.824-5.504L393.288 68h1.84l2.544-7.68h-1.808zM400.738 68v-7.68h-1.712V68h1.712zm.192-10.176c0-.672-.48-1.008-1.04-1.008s-1.056.336-1.056 1.008c0 .704.496 1.024 1.056 1.024s1.04-.32 1.04-1.024zM404.436 61.376V60.32h-1.52V68h1.712v-5.088c.432-.624 1.168-1.28 2.144-1.28 1.024 0 1.792.592 1.792 1.84V68h1.712v-4.752c0-1.824-1.232-3.136-3.168-3.136-1.168 0-2.112.592-2.672 1.264zM418.418 56.8v4.512c-.528-.608-1.424-1.2-2.768-1.2-2.32 0-3.808 1.84-3.808 4.048s1.488 4.048 3.808 4.048c1.44 0 2.352-.672 2.944-1.424V68h1.536V56.8h-1.712zm-.016 6.416v1.872c-.368.848-1.248 1.616-2.448 1.616-1.376 0-2.384-1.04-2.384-2.544s1.008-2.544 2.384-2.544c1.2 0 2.08.768 2.448 1.6zM421.795 64.16c0 2.656 2.016 4.048 4.16 4.048 2.16 0 4.16-1.392 4.16-4.048s-2-4.048-4.16-4.048c-2.144 0-4.16 1.392-4.16 4.048zm6.576 0c0 1.504-.992 2.48-2.416 2.48-1.44 0-2.432-.976-2.432-2.48s.992-2.48 2.432-2.48c1.424 0 2.416.976 2.416 2.48zM441.395 60.32l-1.712 5.808-1.888-5.808h-1.6l-1.872 5.808-1.728-5.808h-1.808l2.56 7.68h1.824l1.824-5.504L438.819 68h1.84l2.544-7.68h-1.808zM445.803 67.12c0-.688-.496-1.024-1.072-1.024-.576 0-1.088.336-1.088 1.024 0 .72.512 1.056 1.088 1.056.576 0 1.072-.336 1.072-1.056zM449.17 61.52v-1.2h-1.52v11.2h1.712v-4.512c.528.608 1.424 1.2 2.768 1.2 2.304 0 3.808-1.84 3.808-4.048s-1.504-4.048-3.808-4.048c-1.44 0-2.352.672-2.96 1.408zm5.024 2.64c0 1.504-.992 2.544-2.384 2.544-1.184 0-2.08-.768-2.448-1.616v-1.872c.368-.832 1.264-1.6 2.448-1.6 1.392 0 2.384 1.04 2.384 2.544zM464.147 66.224v-2.752c0-2.32-1.376-3.36-3.552-3.36-1.232 0-2.336.304-2.944.512v1.568a6.839 6.839 0 012.768-.592c1.312 0 2.016.672 2.016 1.632v.272a10.209 10.209 0 00-2-.224c-1.6 0-3.424.608-3.424 2.576 0 1.584 1.296 2.352 2.688 2.352 1.2 0 2.144-.384 2.896-.992.272.624.832.896 1.536.896a2.99 2.99 0 001.088-.192v-1.232c-.16.048-.336.096-.512.096-.304 0-.56-.128-.56-.56zm-3.376-1.744c.544 0 1.2.096 1.664.192v1.296a3.122 3.122 0 01-2.224.912c-.768 0-1.44-.384-1.44-1.136 0-.96 1.024-1.264 2-1.264zM465.92 64.16c0 2.208 1.488 4.048 3.808 4.048 1.344 0 2.24-.608 2.768-1.232v.976c0 1.728-1.296 2.272-2.816 2.272a5.873 5.873 0 01-2.944-.784v1.568c.912.464 2 .72 3.168.72 2.192 0 4.304-1.056 4.304-3.824V60.32h-1.536v1.2c-.592-.736-1.504-1.408-2.944-1.408-2.32 0-3.808 1.84-3.808 4.048zm6.56-.944V65.2c-.368.784-1.248 1.504-2.448 1.504-1.376 0-2.384-1.04-2.384-2.544s1.008-2.544 2.384-2.544c1.2 0 2.08.768 2.448 1.6zM475.873 64.16c0 2.704 2 4.048 4.352 4.048 1.072 0 2.048-.192 2.752-.528v-1.472a5.621 5.621 0 01-2.432.544c-1.408 0-2.752-.576-2.944-1.952h5.776c.496-2.224-.56-4.688-3.616-4.688-1.776 0-3.888 1.264-3.888 4.048zm5.968-.64h-4.256c.064-1.296 1.104-1.984 2.256-1.984 1.68 0 2.096 1.312 2 1.984zM488.586 68v-4.112l4.4-7.088h-2.048l-3.264 5.424-3.248-5.424h-2.048l4.384 7.088V68h1.824zM492.937 62.4c0 2.96 1.936 5.808 5.888 5.808 3.936 0 5.888-2.848 5.888-5.808s-1.952-5.808-5.888-5.808c-3.952 0-5.888 2.848-5.888 5.808zm9.92 0c0 2.144-1.312 4.096-4.032 4.096-2.704 0-4.032-1.952-4.032-4.096s1.328-4.096 4.032-4.096c2.72 0 4.032 1.952 4.032 4.096zM516.943 58.224V56.72a5.623 5.623 0 00-1.904-.336c-.864 0-1.744.256-2.304.976-.816-.416-1.568-.608-2.464-.608-1.776 0-3.168.944-3.168 2.896v.672h-1.392v1.504h1.392V68h1.712v-6.176h3.36V68h1.712v-6.176h2.64V60.32h-2.64v-.992c0-1.2.736-1.44 1.568-1.44.544 0 1.104.144 1.488.336zm-8.128 2.096v-.672c0-.976.704-1.424 1.696-1.424.752 0 1.232.144 1.712.448a8.662 8.662 0 00-.032.688v.96h-3.376zM517.375 62.4c0 2.752 4.64 2.16 4.64 3.584 0 .624-.704.784-1.664.784s-2.128-.288-2.928-.816v1.52c.752.464 1.888.736 3.008.736 1.744 0 3.312-.56 3.312-2.256 0-2.8-4.624-2.112-4.624-3.6 0-.624.736-.832 1.424-.832.912 0 2.016.32 2.656.752v-1.504a6.144 6.144 0 00-2.768-.656c-1.52 0-3.056.608-3.056 2.288zM524.811 64.16c0 2.704 2 4.048 4.352 4.048 1.072 0 2.048-.192 2.752-.528v-1.472a5.621 5.621 0 01-2.432.544c-1.408 0-2.752-.576-2.944-1.952h5.776c.496-2.224-.56-4.688-3.616-4.688-1.776 0-3.888 1.264-3.888 4.048zm5.968-.64h-4.256c.064-1.296 1.104-1.984 2.256-1.984 1.68 0 2.096 1.312 2 1.984zM534.616 58v2.32h-1.376v1.504h1.376v3.84c0 1.792 1.152 2.528 2.64 2.528.752 0 1.488-.128 2.064-.336v-1.472c-.48.192-.992.304-1.552.304-.992 0-1.456-.336-1.456-1.344v-3.52h2.784V60.32h-2.784v-2.736l-1.696.416zM542.761 61.888c0-.704-.496-1.04-1.088-1.04-.56 0-1.072.336-1.072 1.04s.512 1.04 1.072 1.04c.592 0 1.088-.336 1.088-1.04zm0 5.232c0-.688-.496-1.024-1.088-1.024-.56 0-1.072.336-1.072 1.024 0 .72.512 1.056 1.072 1.056.592 0 1.088-.336 1.088-1.056zM548.556 58.016v1.76c1.152-.832 2.352-1.216 3.456-1.216 1.344 0 2.16.496 2.16 1.44 0 1.232-1.104 1.792-2.368 2.528-1.648.976-3.616 1.984-3.616 4.64V68h7.888v-1.648l-5.84.016c.016-1.088 1.344-1.76 2.752-2.592 1.472-.88 3.008-1.968 3.008-3.808 0-2.032-1.616-3.056-3.824-3.056-1.264 0-2.496.336-3.616 1.104zM557.627 62.56c0 3.184 1.504 5.648 4.88 5.648s4.88-2.464 4.88-5.648c0-3.184-1.504-5.648-4.88-5.648s-4.88 2.464-4.88 5.648zm7.92 0c0 2.528-.96 3.984-3.04 3.984-2.096 0-3.04-1.456-3.04-3.984s.944-3.984 3.04-3.984c2.08 0 3.04 1.456 3.04 3.984zM568.924 62.56c0 3.184 1.504 5.648 4.88 5.648s4.88-2.464 4.88-5.648c0-3.184-1.504-5.648-4.88-5.648s-4.88 2.464-4.88 5.648zm7.92 0c0 2.528-.96 3.984-3.04 3.984-2.096 0-3.04-1.456-3.04-3.984s.944-3.984 3.04-3.984c2.08 0 3.04 1.456 3.04 3.984zM26.864 60.32l-1.712 5.808-1.888-5.808h-1.6l-1.872 5.808-1.728-5.808h-1.808l2.56 7.68h1.824l1.824-5.504L24.288 68h1.84l2.544-7.68h-1.808zM31.738 68v-7.68h-1.712V68h1.712zm.192-10.176c0-.672-.48-1.008-1.04-1.008s-1.056.336-1.056 1.008c0 .704.496 1.024 1.056 1.024s1.04-.32 1.04-1.024zM35.436 61.376V60.32h-1.52V68h1.712v-5.088c.432-.624 1.168-1.28 2.144-1.28 1.024 0 1.792.592 1.792 1.84V68h1.712v-4.752c0-1.824-1.232-3.136-3.168-3.136-1.168 0-2.112.592-2.672 1.264zM49.418 56.8v4.512c-.528-.608-1.424-1.2-2.768-1.2-2.32 0-3.808 1.84-3.808 4.048s1.488 4.048 3.808 4.048c1.44 0 2.352-.672 2.944-1.424V68h1.536V56.8h-1.712zm-.016 6.416v1.872c-.368.848-1.248 1.616-2.448 1.616-1.376 0-2.384-1.04-2.384-2.544s1.008-2.544 2.384-2.544c1.2 0 2.08.768 2.448 1.6zM52.795 64.16c0 2.656 2.016 4.048 4.16 4.048 2.16 0 4.16-1.392 4.16-4.048s-2-4.048-4.16-4.048c-2.144 0-4.16 1.392-4.16 4.048zm6.576 0c0 1.504-.992 2.48-2.416 2.48-1.44 0-2.432-.976-2.432-2.48s.992-2.48 2.432-2.48c1.424 0 2.416.976 2.416 2.48zM72.395 60.32l-1.712 5.808-1.888-5.808h-1.6l-1.872 5.808-1.728-5.808h-1.808l2.56 7.68h1.824l1.824-5.504L69.82 68h1.84l2.544-7.68h-1.808zM76.803 67.12c0-.688-.496-1.024-1.072-1.024-.576 0-1.088.336-1.088 1.024 0 .72.512 1.056 1.088 1.056.576 0 1.072-.336 1.072-1.056zM80.17 61.52v-1.2h-1.52v11.2h1.712v-4.512c.528.608 1.424 1.2 2.768 1.2 2.304 0 3.808-1.84 3.808-4.048s-1.504-4.048-3.808-4.048c-1.44 0-2.352.672-2.96 1.408zm5.024 2.64c0 1.504-.992 2.544-2.384 2.544-1.184 0-2.08-.768-2.448-1.616v-1.872c.368-.832 1.264-1.6 2.448-1.6 1.392 0 2.384 1.04 2.384 2.544zM95.147 66.224v-2.752c0-2.32-1.376-3.36-3.552-3.36-1.232 0-2.336.304-2.944.512v1.568a6.839 6.839 0 012.768-.592c1.312 0 2.016.672 2.016 1.632v.272a10.209 10.209 0 00-2-.224c-1.6 0-3.424.608-3.424 2.576 0 1.584 1.296 2.352 2.688 2.352 1.2 0 2.144-.384 2.896-.992.272.624.832.896 1.536.896a2.99 2.99 0 001.088-.192v-1.232c-.16.048-.336.096-.512.096-.304 0-.56-.128-.56-.56zm-3.376-1.744c.544 0 1.2.096 1.664.192v1.296a3.122 3.122 0 01-2.224.912c-.768 0-1.44-.384-1.44-1.136 0-.96 1.024-1.264 2-1.264zM96.92 64.16c0 2.208 1.488 4.048 3.808 4.048 1.344 0 2.24-.608 2.768-1.232v.976c0 1.728-1.296 2.272-2.816 2.272a5.873 5.873 0 01-2.944-.784v1.568c.912.464 2 .72 3.168.72 2.192 0 4.304-1.056 4.304-3.824V60.32h-1.536v1.2c-.592-.736-1.504-1.408-2.944-1.408-2.32 0-3.808 1.84-3.808 4.048zm6.56-.944V65.2c-.368.784-1.248 1.504-2.448 1.504-1.376 0-2.384-1.04-2.384-2.544s1.008-2.544 2.384-2.544c1.2 0 2.08.768 2.448 1.6zM106.873 64.16c0 2.704 2 4.048 4.352 4.048 1.072 0 2.048-.192 2.752-.528v-1.472a5.621 5.621 0 01-2.432.544c-1.408 0-2.752-.576-2.944-1.952h5.776c.496-2.224-.56-4.688-3.616-4.688-1.776 0-3.888 1.264-3.888 4.048zm5.968-.64h-4.256c.064-1.296 1.104-1.984 2.256-1.984 1.68 0 2.096 1.312 2 1.984zM119.586 68v-4.112l4.4-7.088h-2.048l-3.264 5.424-3.248-5.424h-2.048l4.384 7.088V68h1.824zM123.937 62.4c0 2.96 1.936 5.808 5.888 5.808 3.936 0 5.888-2.848 5.888-5.808s-1.952-5.808-5.888-5.808c-3.952 0-5.888 2.848-5.888 5.808zm9.92 0c0 2.144-1.312 4.096-4.032 4.096-2.704 0-4.032-1.952-4.032-4.096s1.328-4.096 4.032-4.096c2.72 0 4.032 1.952 4.032 4.096zM147.943 58.224V56.72a5.623 5.623 0 00-1.904-.336c-.864 0-1.744.256-2.304.976-.816-.416-1.568-.608-2.464-.608-1.776 0-3.168.944-3.168 2.896v.672h-1.392v1.504h1.392V68h1.712v-6.176h3.36V68h1.712v-6.176h2.64V60.32h-2.64v-.992c0-1.2.736-1.44 1.568-1.44.544 0 1.104.144 1.488.336zm-8.128 2.096v-.672c0-.976.704-1.424 1.696-1.424.752 0 1.232.144 1.712.448a8.662 8.662 0 00-.032.688v.96h-3.376zM148.375 62.4c0 2.752 4.64 2.16 4.64 3.584 0 .624-.704.784-1.664.784s-2.128-.288-2.928-.816v1.52c.752.464 1.888.736 3.008.736 1.744 0 3.312-.56 3.312-2.256 0-2.8-4.624-2.112-4.624-3.6 0-.624.736-.832 1.424-.832.912 0 2.016.32 2.656.752v-1.504a6.144 6.144 0 00-2.768-.656c-1.52 0-3.056.608-3.056 2.288zM155.811 64.16c0 2.704 2 4.048 4.352 4.048 1.072 0 2.048-.192 2.752-.528v-1.472a5.621 5.621 0 01-2.432.544c-1.408 0-2.752-.576-2.944-1.952h5.776c.496-2.224-.56-4.688-3.616-4.688-1.776 0-3.888 1.264-3.888 4.048zm5.968-.64h-4.256c.064-1.296 1.104-1.984 2.256-1.984 1.68 0 2.096 1.312 2 1.984zM165.616 58v2.32h-1.376v1.504h1.376v3.84c0 1.792 1.152 2.528 2.64 2.528.752 0 1.488-.128 2.064-.336v-1.472c-.48.192-.992.304-1.552.304-.992 0-1.456-.336-1.456-1.344v-3.52h2.784V60.32h-2.784v-2.736l-1.696.416zM173.761 61.888c0-.704-.496-1.04-1.088-1.04-.56 0-1.072.336-1.072 1.04s.512 1.04 1.072 1.04c.592 0 1.088-.336 1.088-1.04zm0 5.232c0-.688-.496-1.024-1.088-1.024-.56 0-1.072.336-1.072 1.024 0 .72.512 1.056 1.072 1.056.592 0 1.088-.336 1.088-1.056zM179.268 62.56c0 3.184 1.504 5.648 4.88 5.648s4.88-2.464 4.88-5.648c0-3.184-1.504-5.648-4.88-5.648s-4.88 2.464-4.88 5.648zm7.92 0c0 2.528-.96 3.984-3.04 3.984-2.096 0-3.04-1.456-3.04-3.984s.944-3.984 3.04-3.984c2.08 0 3.04 1.456 3.04 3.984z" fill="#E84E1B"/></svg>