<svg width="705" height="280" fill="none" xmlns="http://www.w3.org/2000/svg"><path fill-rule="evenodd" clip-rule="evenodd" d="M5.527 279.61l.618-1.902A5.99 5.99 0 008 278h4.05v2H8a7.99 7.99 0 01-2.473-.39zm322.423.39v-2H332c.651 0 1.274-.103 1.855-.292l.618 1.902c-.779.253-1.61.39-2.473.39h-4.05zM340 81.88h-2V78a5.99 5.99 0 00-.292-1.855l1.902-.618c.253.779.39 1.61.39 2.473v3.88zM12.05 70H8c-.863 0-1.694.137-2.473.39l.618 1.902A5.994 5.994 0 018 72h4.05v-2zM0 268.12h2V272c0 .651.103 1.274.292 1.855l-1.902.618A7.995 7.995 0 010 272v-3.88zm0-11.64h2v-7.76H0v7.76zm0-19.4h2v-7.76H0v7.76zm0-19.4h2v-7.76H0v7.76zm0-19.4h2v-7.76H0v7.76zm0-19.4h2v-7.76H0v7.76zm0-19.4h2v-7.76H0v7.76zm0-19.4h2v-7.76H0v7.76zm0-19.4h2v-7.76H0v7.76zm0-19.4h2v-7.76H0v7.76zm0-19.4h2V78c0-.65.103-1.274.292-1.855L.39 75.527A7.994 7.994 0 000 78v3.88zM24.2 70v2h8.1v-2h-8.1zm20.25 0v2h8.1v-2h-8.1zm20.25 0v2h8.1v-2h-8.1zm20.25 0v2h8.1v-2h-8.1zm20.25 0v2h8.1v-2h-8.1zm20.25 0v2h8.1v-2h-8.1zm20.25 0v2h8.1v-2h-8.1zm20.25 0v2h8.1v-2h-8.1zm20.25 0v2h8.1v-2h-8.1zm20.25 0v2h8.1v-2h-8.1zm20.25 0v2h8.1v-2h-8.1zm20.25 0v2h8.1v-2h-8.1zm20.25 0v2h8.1v-2h-8.1zm20.25 0v2h8.1v-2h-8.1zm20.25 0v2h8.1v-2h-8.1zm20.25 0v2H332c.651 0 1.274.103 1.855.292l.618-1.902A7.995 7.995 0 00332 70h-4.05zM340 93.52h-2v7.76h2v-7.76zm0 19.4h-2v7.76h2v-7.76zm0 19.4h-2v7.76h2v-7.76zm0 19.4h-2v7.76h2v-7.76zm0 19.4h-2v7.76h2v-7.76zm0 19.4h-2v7.76h2v-7.76zm0 19.4h-2v7.76h2v-7.76zm0 19.4h-2v7.76h2v-7.76zm0 19.4h-2v7.76h2v-7.76zm0 19.4h-2V272c0 .651-.103 1.274-.292 1.855l1.902.618c.253-.779.39-1.61.39-2.473v-3.88zM315.8 280v-2h-8.1v2h8.1zm-20.25 0v-2h-8.1v2h8.1zm-20.25 0v-2h-8.1v2h8.1zm-20.25 0v-2h-8.1v2h8.1zm-20.25 0v-2h-8.1v2h8.1zm-20.25 0v-2h-8.1v2h8.1zm-20.25 0v-2h-8.1v2h8.1zm-20.25 0v-2h-8.1v2h8.1zm-20.25 0v-2h-8.1v2h8.1zm-20.25 0v-2h-8.1v2h8.1zm-20.25 0v-2h-8.1v2h8.1zm-20.25 0v-2h-8.1v2h8.1zm-20.25 0v-2h-8.1v2h8.1zm-20.25 0v-2h-8.1v2h8.1zm-20.25 0v-2h-8.1v2h8.1z" fill="#D2D5E3"/><g opacity=".2"><path d="M14 186a2 2 0 012-2h86a2 2 0 012 2v56a2 2 0 01-2 2H16a2 2 0 01-2-2v-56zM116 186a2 2 0 012-2h86a2 2 0 012 2v56a2 2 0 01-2 2h-86a2 2 0 01-2-2v-56zM218 186a2 2 0 012-2h86a2 2 0 012 2v56a2 2 0 01-2 2h-86a2 2 0 01-2-2v-56z" fill="#E2E2E2"/><path d="M14 256a2 2 0 012-2h66a2 2 0 110 4H16a2 2 0 01-2-2zM218 256a2 2 0 012-2h66a2 2 0 110 4h-66a2 2 0 01-2-2zM116 256a2 2 0 012-2h66a2 2 0 110 4h-66a2 2 0 01-2-2z" fill="#6D61D1"/><path d="M14 265a1 1 0 011-1h81a1 1 0 010 2H15a1 1 0 01-1-1zM218 265a1 1 0 011-1h81a1 1 0 010 2h-81a1 1 0 01-1-1zM116 271a1 1 0 011-1h81a1 1 0 010 2h-81a1 1 0 01-1-1zM14 271a1 1 0 011-1h88a1 1 0 010 2H15a1 1 0 01-1-1zM116 265a1 1 0 011-1h88a1 1 0 010 2h-88a1 1 0 01-1-1zM218 271a1 1 0 011-1h74a1 1 0 010 2h-74a1 1 0 01-1-1z" fill="#AAA"/><path d="M181 92a4 4 0 014-4h62a4 4 0 010 8h-62a4 4 0 01-4-4z" fill="#6D61D1"/><path d="M181 106a2 2 0 012-2h123a2 2 0 110 4H183a2 2 0 01-2-2zM181 114a2 2 0 012-2h102a2 2 0 110 4H183a2 2 0 01-2-2zM181 122a2 2 0 012-2h79a2 2 0 110 4h-79a2 2 0 01-2-2z" fill="#AAA"/><path d="M181 138a2 2 0 012-2h60a2 2 0 012 2v12a2 2 0 01-2 2h-60a2 2 0 01-2-2v-12z" fill="#4EB543"/></g><path d="M0 56a8 8 0 018-8h224a8 8 0 018 8v166a8 8 0 01-8 8H8a8 8 0 01-8-8V56z" fill="#fff"/><path fill-rule="evenodd" clip-rule="evenodd" d="M232 50H8a6 6 0 00-6 6v166a6 6 0 006 6h224a6 6 0 006-6V56a6 6 0 00-6-6zM8 48a8 8 0 00-8 8v166a8 8 0 008 8h224a8 8 0 008-8V56a8 8 0 00-8-8H8z" fill="#D2D5E3"/><path d="M0 56a8 8 0 018-8h224a8 8 0 018 8v16H0V56z" fill="#D2D5E3"/><mask id="a" maskUnits="userSpaceOnUse" x="2" y="72" width="236" height="156"><path d="M2 72h236v150a6 6 0 01-6 6H8a6 6 0 01-6-6V72z" fill="#D2D5E3"/></mask><g mask="url(#a)"><path d="M14 186a2 2 0 012-2h86a2 2 0 012 2v56a2 2 0 01-2 2H16a2 2 0 01-2-2v-56zM116 186a2 2 0 012-2h86a2 2 0 012 2v56a2 2 0 01-2 2h-86a2 2 0 01-2-2v-56zM218 186a2 2 0 012-2h86a2 2 0 012 2v56a2 2 0 01-2 2h-86a2 2 0 01-2-2v-56zM14 82a2 2 0 012-2h147a2 2 0 012 2v76a2 2 0 01-2 2H16a2 2 0 01-2-2V82z" fill="#E2E2E2"/><path d="M181 92a4 4 0 014-4h62a4 4 0 010 8h-62a4 4 0 01-4-4z" fill="#6D61D1"/><path d="M181 106a2 2 0 012-2h123a2 2 0 110 4H183a2 2 0 01-2-2zM181 114a2 2 0 012-2h102a2 2 0 110 4H183a2 2 0 01-2-2zM181 122a2 2 0 012-2h79a2 2 0 110 4h-79a2 2 0 01-2-2z" fill="#AAA"/><path d="M181 138a2 2 0 012-2h60a2 2 0 012 2v12a2 2 0 01-2 2h-60a2 2 0 01-2-2v-12z" fill="#4EB543"/><path d="M226 216h12V72h-12v144z" fill="#302683"/><path d="M229 134a3 3 0 106 0V93a3 3 0 10-6 0v41zM228 204l4 8 4-8h-8zM228 84l4-8 4 8h-8z" fill="#fff"/><path d="M226 216v12h12v-12h-12z" fill="#D2D5E3"/><path d="M2 216v12h224v-12H2z" fill="#302683"/><path d="M23 219a3 3 0 100 6h41a3 3 0 100-6H23zM14 218l-8 4 8 4v-8zM214 218l8 4-8 4v-8z" fill="#fff"/></g><g opacity=".2"><path d="M379 136a2 2 0 012-2h86a2 2 0 012 2v56a2 2 0 01-2 2h-86a2 2 0 01-2-2v-56z" fill="#E2E2E2"/><path d="M379 206a2 2 0 012-2h66a2 2 0 110 4h-66a2 2 0 01-2-2z" fill="#6D61D1"/><path d="M379 215a1 1 0 011-1h81a1 1 0 010 2h-81a1 1 0 01-1-1zM379 221a1 1 0 011-1h88a1 1 0 010 2h-88a1 1 0 01-1-1z" fill="#AAA"/><path d="M379 32a2 2 0 012-2h147a2 2 0 012 2v76a2 2 0 01-2 2H381a2 2 0 01-2-2V32z" fill="#E2E2E2"/><path d="M546 42a4 4 0 014-4h62a4 4 0 010 8h-62a4 4 0 01-4-4z" fill="#6D61D1"/></g><path fill-rule="evenodd" clip-rule="evenodd" d="M370.527 229.61l.618-1.902A5.985 5.985 0 00373 228h4.05v2H373a7.992 7.992 0 01-2.473-.39zm322.423.39v-2H697c.651 0 1.274-.103 1.855-.292l.618 1.902c-.779.253-1.61.39-2.473.39h-4.05zM705 31.88h-2V28a5.99 5.99 0 00-.292-1.855l1.902-.618c.253.779.39 1.61.39 2.473v3.88zM377.05 20H373c-.863 0-1.694.137-2.473.39l.618 1.902A5.987 5.987 0 01373 22h4.05v-2zM365 218.12h2V222c0 .651.103 1.274.292 1.855l-1.902.618A7.992 7.992 0 01365 222v-3.88zm0-11.64h2v-7.76h-2v7.76zm0-19.4h2v-7.76h-2v7.76zm0-19.4h2v-7.76h-2v7.76zm0-19.4h2v-7.76h-2v7.76zm0-19.4h2v-7.76h-2v7.76zm0-19.4h2v-7.76h-2v7.76zm0-19.4h2v-7.76h-2v7.76zm0-19.4h2v-7.76h-2v7.76zm0-19.4h2v-7.76h-2v7.76zm0-19.4h2V28c0-.65.103-1.274.292-1.855l-1.902-.618A7.99 7.99 0 00365 28v3.88zM389.2 20v2h8.1v-2h-8.1zm20.25 0v2h8.1v-2h-8.1zm20.25 0v2h8.1v-2h-8.1zm20.25 0v2h8.1v-2h-8.1zm20.25 0v2h8.1v-2h-8.1zm20.25 0v2h8.1v-2h-8.1zm20.25 0v2h8.1v-2h-8.1zm20.25 0v2h8.1v-2h-8.1zm20.25 0v2h8.1v-2h-8.1zm20.25 0v2h8.1v-2h-8.1zm20.25 0v2h8.1v-2h-8.1zm20.25 0v2h8.1v-2h-8.1zm20.25 0v2h8.1v-2h-8.1zm20.25 0v2h8.1v-2h-8.1zm20.25 0v2h8.1v-2h-8.1zm20.25 0v2H697c.651 0 1.274.103 1.855.292l.618-1.902A7.995 7.995 0 00697 20h-4.05zM705 43.52h-2v7.76h2v-7.76zm0 19.4h-2v7.76h2v-7.76zm0 19.4h-2v7.76h2v-7.76zm0 19.4h-2v7.76h2v-7.76zm0 19.4h-2v7.76h2v-7.76zm0 19.4h-2v7.76h2v-7.76zm0 19.4h-2v7.76h2v-7.76zm0 19.4h-2v7.76h2v-7.76zm0 19.4h-2v7.76h2v-7.76zm0 19.4h-2V222c0 .651-.103 1.274-.292 1.855l1.902.618c.253-.779.39-1.61.39-2.473v-3.88zM680.8 230v-2h-8.1v2h8.1zm-20.25 0v-2h-8.1v2h8.1zm-20.25 0v-2h-8.1v2h8.1zm-20.25 0v-2h-8.1v2h8.1zm-20.25 0v-2h-8.1v2h8.1zm-20.25 0v-2h-8.1v2h8.1zm-20.25 0v-2h-8.1v2h8.1zm-20.25 0v-2h-8.1v2h8.1zm-20.25 0v-2h-8.1v2h8.1zm-20.25 0v-2h-8.1v2h8.1zm-20.25 0v-2h-8.1v2h8.1zm-20.25 0v-2h-8.1v2h8.1zm-20.25 0v-2h-8.1v2h8.1zm-20.25 0v-2h-8.1v2h8.1zm-20.25 0v-2h-8.1v2h8.1z" fill="#D2D5E3"/><path d="M465 56a8 8 0 018-8h224a8 8 0 018 8v166a8 8 0 01-8 8H473a8 8 0 01-8-8V56z" fill="#fff"/><path fill-rule="evenodd" clip-rule="evenodd" d="M697 50H473a6 6 0 00-6 6v166a6 6 0 006 6h224a6 6 0 006-6V56a6 6 0 00-6-6zm-224-2a8 8 0 00-8 8v166a8 8 0 008 8h224a8 8 0 008-8V56a8 8 0 00-8-8H473z" fill="#D2D5E3"/><path d="M465 56a8 8 0 018-8h224a8 8 0 018 8v16H465V56z" fill="#D2D5E3"/><mask id="b" maskUnits="userSpaceOnUse" x="467" y="72" width="236" height="156"><path d="M467 72h236v150a6 6 0 01-6 6H473a6 6 0 01-6-6V72z" fill="#D2D5E3"/></mask><g mask="url(#b)"><path d="M379 136a2 2 0 012-2h86a2 2 0 012 2v56a2 2 0 01-2 2h-86a2 2 0 01-2-2v-56zM481 136a2 2 0 012-2h86a2 2 0 012 2v56a2 2 0 01-2 2h-86a2 2 0 01-2-2v-56zM583 136a2 2 0 012-2h86a2 2 0 012 2v56a2 2 0 01-2 2h-86a2 2 0 01-2-2v-56z" fill="#E2E2E2"/><path d="M583 206a2 2 0 012-2h66a2 2 0 110 4h-66a2 2 0 01-2-2zM481 206a2 2 0 012-2h66a2 2 0 110 4h-66a2 2 0 01-2-2z" fill="#6D61D1"/><path d="M583 215a1 1 0 011-1h81a1 1 0 010 2h-81a1 1 0 01-1-1zM481 221a1 1 0 011-1h81a1 1 0 010 2h-81a1 1 0 01-1-1zM379 221a1 1 0 011-1h88a1 1 0 010 2h-88a1 1 0 01-1-1zM583 227a1 1 0 011-1h88a1 1 0 010 2h-88a1 1 0 01-1-1zM481 215a1 1 0 011-1h88a1 1 0 010 2h-88a1 1 0 01-1-1zM583 221a1 1 0 011-1h74a1 1 0 010 2h-74a1 1 0 01-1-1z" fill="#AAA"/><path d="M379 32a2 2 0 012-2h147a2 2 0 012 2v76a2 2 0 01-2 2H381a2 2 0 01-2-2V32z" fill="#E2E2E2"/><path d="M546 72a2 2 0 012-2h79a2 2 0 110 4h-79a2 2 0 01-2-2z" fill="#AAA"/><path d="M546 88a2 2 0 012-2h60a2 2 0 012 2v12a2 2 0 01-2 2h-60a2 2 0 01-2-2V88z" fill="#4EB543"/><path d="M691 216h12V72h-12v144z" fill="#302683"/><path d="M694 185a3 3 0 106 0v-41a3 3 0 10-6 0v41zM693 204l4 8 4-8h-8zM693 84l4-8 4 8h-8z" fill="#fff"/><path d="M467 216v12h224v-12H467z" fill="#302683"/><path d="M691 216v12h12v-12h-12z" fill="#D2D5E3"/><path d="M629 219a3 3 0 100 6h41a3 3 0 100-6h-41zM479 218l-8 4 8 4v-8zM679 218l8 4-8 4v-8z" fill="#fff"/></g><path d="M12 76a6 6 0 11-12 0 6 6 0 0112 0zM377 26a6 6 0 11-12 0 6 6 0 0112 0zM18.992 53.04c-1.424 2.032-2.352 4.784-2.352 7.36 0 2.576.928 5.328 2.352 7.36h1.504c-1.264-2.048-2.032-4.8-2.032-7.36 0-2.56.768-5.312 2.032-7.36h-1.504zM21.174 60.56c0 3.184 1.504 5.648 4.88 5.648s4.88-2.464 4.88-5.648c0-3.184-1.504-5.648-4.88-5.648s-4.88 2.464-4.88 5.648zm7.92 0c0 2.528-.96 3.984-3.04 3.984-2.096 0-3.04-1.456-3.04-3.984s.944-3.984 3.04-3.984c2.08 0 3.04 1.456 3.04 3.984zM32.865 68.368l1.36-3.968h-1.808l-.944 3.968h1.392zM39.643 60.56c0 3.184 1.504 5.648 4.88 5.648s4.88-2.464 4.88-5.648c0-3.184-1.504-5.648-4.88-5.648s-4.88 2.464-4.88 5.648zm7.92 0c0 2.528-.96 3.984-3.04 3.984-2.096 0-3.04-1.456-3.04-3.984s.944-3.984 3.04-3.984c2.08 0 3.04 1.456 3.04 3.984zM50.086 53.04c1.264 2.048 2.032 4.8 2.032 7.36 0 2.56-.768 5.312-2.032 7.36h1.504c1.424-2.032 2.352-4.784 2.352-7.36 0-2.576-.928-5.328-2.352-7.36h-1.504zM383.992 3.04c-1.424 2.032-2.352 4.784-2.352 7.36 0 2.576.928 5.328 2.352 7.36h1.504c-1.264-2.048-2.032-4.8-2.032-7.36 0-2.56.768-5.312 2.032-7.36h-1.504zM386.174 10.56c0 3.184 1.504 5.648 4.88 5.648s4.88-2.464 4.88-5.648c0-3.184-1.504-5.648-4.88-5.648s-4.88 2.464-4.88 5.648zm7.92 0c0 2.528-.96 3.984-3.04 3.984-2.096 0-3.04-1.456-3.04-3.984s.944-3.984 3.04-3.984c2.08 0 3.04 1.456 3.04 3.984zM397.865 18.368l1.36-3.968h-1.808l-.944 3.968h1.392zM404.643 10.56c0 3.184 1.504 5.648 4.88 5.648s4.88-2.464 4.88-5.648c0-3.184-1.504-5.648-4.88-5.648s-4.88 2.464-4.88 5.648zm7.92 0c0 2.528-.96 3.984-3.04 3.984-2.096 0-3.04-1.456-3.04-3.984s.944-3.984 3.04-3.984c2.08 0 3.04 1.456 3.04 3.984zM415.086 3.04c1.264 2.048 2.032 4.8 2.032 7.36 0 2.56-.768 5.312-2.032 7.36h1.504c1.424-2.032 2.352-4.784 2.352-7.36 0-2.576-.928-5.328-2.352-7.36h-1.504zM112 126a6 6 0 11-12 0 6 6 0 0112 0zM477 76a6 6 0 11-12 0 6 6 0 0112 0zM118.992 103.04c-1.424 2.032-2.352 4.784-2.352 7.36 0 2.576.928 5.328 2.352 7.36h1.504c-1.264-2.048-2.032-4.8-2.032-7.36 0-2.56.768-5.312 2.032-7.36h-1.504zM124.285 105.12l-2.64 1.008v1.68l2.176-.816v7.36h-2.176V116h5.92v-1.648h-1.936v-9.232h-1.344zM128.69 110.56c0 3.184 1.504 5.648 4.88 5.648s4.88-2.464 4.88-5.648c0-3.184-1.504-5.648-4.88-5.648s-4.88 2.464-4.88 5.648zm7.92 0c0 2.528-.96 3.984-3.04 3.984-2.096 0-3.04-1.456-3.04-3.984s.944-3.984 3.04-3.984c2.08 0 3.04 1.456 3.04 3.984zM139.987 110.56c0 3.184 1.504 5.648 4.88 5.648s4.88-2.464 4.88-5.648c0-3.184-1.504-5.648-4.88-5.648s-4.88 2.464-4.88 5.648zm7.92 0c0 2.528-.96 3.984-3.04 3.984-2.096 0-3.04-1.456-3.04-3.984s.944-3.984 3.04-3.984c2.08 0 3.04 1.456 3.04 3.984zM151.677 118.368l1.36-3.968h-1.808l-.944 3.968h1.392zM159.16 105.12l-.352 6.048a8.837 8.837 0 012.768-.48c1.728 0 2.96.512 2.96 1.952 0 1.28-1.152 1.92-2.768 1.92-1.136 0-2.368-.272-3.28-.8v1.712c.96.464 2.224.736 3.488.736 2.4 0 4.4-1.2 4.4-3.552 0-2.56-1.952-3.472-4.048-3.472-.56 0-1.12.064-1.648.192l.16-2.624h5.024v-1.632h-6.704zM167.799 110.56c0 3.184 1.504 5.648 4.88 5.648s4.88-2.464 4.88-5.648c0-3.184-1.504-5.648-4.88-5.648s-4.88 2.464-4.88 5.648zm7.92 0c0 2.528-.96 3.984-3.04 3.984-2.096 0-3.04-1.456-3.04-3.984s.944-3.984 3.04-3.984c2.08 0 3.04 1.456 3.04 3.984zM178.242 103.04c1.264 2.048 2.032 4.8 2.032 7.36 0 2.56-.768 5.312-2.032 7.36h1.504c1.424-2.032 2.352-4.784 2.352-7.36 0-2.576-.928-5.328-2.352-7.36h-1.504zM483.992 53.04c-1.424 2.032-2.352 4.784-2.352 7.36 0 2.576.928 5.328 2.352 7.36h1.504c-1.264-2.048-2.032-4.8-2.032-7.36 0-2.56.768-5.312 2.032-7.36h-1.504zM489.285 55.12l-2.64 1.008v1.68l2.176-.816v7.36h-2.176V66h5.92v-1.648h-1.936V55.12h-1.344zM493.69 60.56c0 3.184 1.504 5.648 4.88 5.648s4.88-2.464 4.88-5.648c0-3.184-1.504-5.648-4.88-5.648s-4.88 2.464-4.88 5.648zm7.92 0c0 2.528-.96 3.984-3.04 3.984-2.096 0-3.04-1.456-3.04-3.984s.944-3.984 3.04-3.984c2.08 0 3.04 1.456 3.04 3.984zM504.987 60.56c0 3.184 1.504 5.648 4.88 5.648s4.88-2.464 4.88-5.648c0-3.184-1.504-5.648-4.88-5.648s-4.88 2.464-4.88 5.648zm7.92 0c0 2.528-.96 3.984-3.04 3.984-2.096 0-3.04-1.456-3.04-3.984s.944-3.984 3.04-3.984c2.08 0 3.04 1.456 3.04 3.984zM516.678 68.368l1.36-3.968h-1.808l-.944 3.968h1.392zM524.16 55.12l-.352 6.048a8.837 8.837 0 012.768-.48c1.728 0 2.96.512 2.96 1.952 0 1.28-1.152 1.92-2.768 1.92-1.136 0-2.368-.272-3.28-.8v1.712c.96.464 2.224.736 3.488.736 2.4 0 4.4-1.2 4.4-3.552 0-2.56-1.952-3.472-4.048-3.472-.56 0-1.12.064-1.648.192l.16-2.624h5.024V55.12h-6.704zM532.799 60.56c0 3.184 1.504 5.648 4.88 5.648s4.88-2.464 4.88-5.648c0-3.184-1.504-5.648-4.88-5.648s-4.88 2.464-4.88 5.648zm7.92 0c0 2.528-.96 3.984-3.04 3.984-2.096 0-3.04-1.456-3.04-3.984s.944-3.984 3.04-3.984c2.08 0 3.04 1.456 3.04 3.984zM543.242 53.04c1.264 2.048 2.032 4.8 2.032 7.36 0 2.56-.768 5.312-2.032 7.36h1.504c1.424-2.032 2.352-4.784 2.352-7.36 0-2.576-.928-5.328-2.352-7.36h-1.504z" fill="#E84E1B"/><path fill-rule="evenodd" clip-rule="evenodd" d="M473 64V20h-4v44h4zM458 74h-93v4h93v-4z" fill="#E84E1B"/><path d="M464 56l7 14 7-14h-14zM451 83l14-7-14-7v14z" fill="#E84E1B"/></svg>